<svg width="1650" height="479" viewBox="0 0 1650 479" fill="none" xmlns="http://www.w3.org/2000/svg">
<rect x="1372.55" y="101.431" width="105.43" height="221.758" fill="#F2C50A"/>
<rect x="1456.27" y="144.851" width="44.9629" height="178.337" fill="#F2C50A"/>
<rect x="1496.58" y="177.417" width="46.5134" height="139.568" fill="#F2C50A"/>
<path d="M1414.07 101.549C1412.98 101.458 1411.89 101.458 1410.88 101.458C1391.67 101.276 1373.55 108.653 1359.89 122.132C1346.23 135.611 1338.59 153.644 1338.49 172.77L1337.77 270.949H1337.67V305.466C1337.67 311.932 1342.87 317.124 1349.33 317.124H1384.11L1391.49 317.215L1392.04 159.928C1386.48 141.167 1388.03 125.957 1396.86 114.664C1401.41 108.744 1407.61 104.554 1414.07 101.549Z" fill="#54E4FC"/>
<path d="M1572.78 246.358C1573.06 206.285 1549.38 170.219 1513.69 154.19C1510.5 152.733 1508.04 149.91 1507.13 146.54C1502.12 128.143 1491.83 111.476 1477.45 98.5434C1459.24 82.1499 1435.65 72.9513 1410.98 72.7692C1384.2 72.6781 1358.89 82.8785 1339.77 101.64C1320.65 120.492 1310.08 145.629 1309.9 172.405L1309.45 242.351H1309.17V306.377C1309.17 327.961 1326.66 345.448 1348.24 345.448H1383.93L1471.71 346.085C1471.98 346.085 1472.17 346.085 1472.44 346.085C1498.94 346.085 1523.98 335.794 1542.92 317.215C1561.95 298.271 1572.6 273.134 1572.78 246.358ZM1392.04 159.655L1391.4 316.941L1384.02 316.85H1349.33C1342.86 316.85 1337.67 311.659 1337.67 305.193V270.675H1337.77L1338.49 172.496C1338.59 153.28 1346.23 135.338 1359.89 121.859C1373.55 108.38 1391.67 100.911 1410.88 101.185C1411.98 101.185 1413.07 101.185 1414.07 101.276C1407.61 104.281 1401.41 108.471 1396.77 114.39C1388.03 125.684 1386.39 140.893 1392.04 159.655ZM1544.28 246.085C1544.19 261.568 1539.18 276.322 1530.08 288.526C1521.88 288.708 1512.5 287.888 1502.58 284.883C1502.94 283.972 1503.13 282.97 1503.13 281.969C1503.13 277.597 1499.57 274.136 1495.29 274.136C1490.92 274.136 1487.46 277.688 1487.46 281.969C1487.46 285.247 1489.47 288.071 1492.29 289.255C1492.29 289.255 1492.38 289.255 1492.38 289.346C1503.49 293.808 1514.14 295.63 1523.61 296.085C1523.34 296.358 1523.16 296.632 1522.88 296.814C1509.32 310.202 1491.47 317.488 1472.44 317.488C1472.26 317.488 1472.07 317.488 1471.89 317.488L1398.86 316.941L1399.41 158.471L1399.23 157.924C1394.22 141.44 1395.31 128.234 1402.6 118.944C1409.25 110.383 1420.08 106.012 1429.92 103.826C1440.39 106.831 1450.13 112.114 1458.33 119.491C1471.26 131.148 1479.54 147.086 1481.64 164.3L1481.82 166.03C1482.36 170.675 1485.64 174.591 1490.19 175.866L1491.83 176.322C1522.98 185.156 1544.56 213.844 1544.28 246.085Z" fill="black"/>
<path d="M182.506 354.371V346.019C169.559 367.318 141.16 378.176 116.937 378.176C64.3155 378.176 17.9582 338.501 17.9582 276.274C17.9582 214.047 64.3155 174.789 116.937 174.789C140.325 174.789 169.141 184.395 182.506 206.529V198.594C182.506 186.9 191.694 176.877 203.387 176.877C215.916 176.877 225.522 186.9 225.522 198.594V354.371C225.522 366.065 215.916 376.088 203.387 376.088C191.694 376.088 182.506 366.065 182.506 354.371ZM62.2273 275.856C62.2273 311.773 89.3735 336.413 121.949 336.413C153.689 336.413 182.088 314.278 182.088 275.856C182.088 237.434 151.183 216.552 121.949 216.552C89.3735 216.552 62.2273 239.94 62.2273 275.856ZM298.764 198.594V207.782C310.876 186.9 337.604 174.789 363.915 174.789C416.537 174.789 460.806 215.299 460.806 276.691C460.806 338.919 416.537 378.176 363.915 378.176C337.604 378.176 310.876 367.736 298.764 346.019V449.174C298.764 460.868 289.159 470.891 276.63 470.891C264.936 470.891 255.748 460.868 255.748 449.174V198.594C255.748 186.9 264.936 176.877 276.63 176.877C289.159 176.877 298.764 186.9 298.764 198.594ZM299.182 277.527C299.182 315.949 328.834 336.831 358.486 336.831C391.061 336.831 416.954 313.443 416.954 277.527C416.954 241.193 391.061 216.552 358.486 216.552C326.746 216.552 299.182 239.522 299.182 277.527ZM639.409 204.859L535.001 456.274C530.407 467.132 519.549 472.979 508.273 470.056C496.996 467.132 490.732 453.768 494.908 442.909L526.648 364.812L460.245 204.859C455.651 194 462.333 180.636 473.609 177.712C484.885 174.789 495.744 180.636 500.337 191.494L549.618 312.608L599.317 191.494C603.911 180.636 614.769 174.789 626.045 177.712C637.321 180.636 644.003 194 639.409 204.859ZM696.713 92.5153V208.617C707.572 184.812 738.059 174.789 758.523 174.789C808.221 174.789 837.456 207.364 837.456 262.91V354.371C837.456 366.065 827.85 376.088 815.321 376.088C803.627 376.088 794.439 366.065 794.439 354.371V265.415C794.439 234.928 775.228 216.97 751.005 216.97C726.365 216.97 696.713 230.752 696.713 269.174V354.371C696.713 366.065 687.108 376.088 674.579 376.088C662.885 376.088 653.697 366.065 653.697 354.371V92.5153C653.697 80.8216 663.302 70.7984 675.831 70.7984C687.525 70.7984 696.713 80.8216 696.713 92.5153ZM1040.5 198.594V354.371C1040.5 366.065 1030.89 376.088 1018.36 376.088C1006.67 376.088 997.481 366.065 997.481 354.371V344.766C986.205 367.318 959.476 378.176 937.759 378.176C890.567 378.176 863.421 347.689 863.421 292.562V198.594C863.421 186.9 873.026 176.877 885.555 176.877C897.249 176.877 906.437 186.9 906.437 198.594V287.55C906.437 318.455 922.307 335.995 947.365 335.995C972.84 335.995 997.481 322.213 997.481 283.791V198.594C997.481 186.9 1007.09 176.877 1019.62 176.877C1031.31 176.877 1040.5 186.9 1040.5 198.594ZM1113.84 275.856C1113.84 313.861 1141.82 336.413 1173.56 336.413C1206.14 336.413 1232.45 311.773 1232.45 275.856C1232.45 239.94 1206.14 216.552 1173.56 216.552C1144.33 216.552 1113.84 237.434 1113.84 275.856ZM1113.42 92.5153V206.947C1125.53 185.647 1151.43 174.789 1178.99 174.789C1232.03 174.789 1276.3 214.047 1276.3 276.691C1276.3 338.084 1231.2 378.176 1178.57 378.176C1152.26 378.176 1125.53 366.483 1113.42 345.601V354.371C1113.42 366.065 1103.82 376.088 1091.29 376.088C1079.59 376.088 1070.41 366.065 1070.41 354.371V92.5153C1070.41 80.8216 1079.59 70.7984 1091.29 70.7984C1103.82 70.7984 1113.42 80.8216 1113.42 92.5153Z" fill="black"/>
</svg>
