<svg width="935" height="165" viewBox="0 0 935 165" fill="none" xmlns="http://www.w3.org/2000/svg">
<mask id="mask0_4485_2993" style="mask-type:luminance" maskUnits="userSpaceOnUse" x="0" y="0" width="934" height="165">
<path d="M933.611 0H0V165H933.611V0Z" fill="white"/>
</mask>
<g mask="url(#mask0_4485_2993)">
<path d="M256.576 114.386H229.64C225.762 114.386 222.957 113.52 221.307 111.787C219.657 110.055 218.832 107.25 218.832 103.455V37.2076C218.832 33.3301 219.657 30.5251 221.39 28.8339C223.122 27.1426 225.845 26.2764 229.681 26.2764H258.226C262.433 26.2764 266.063 26.5239 269.157 27.0601C272.251 27.5964 275.015 28.5864 277.448 30.0714C279.552 31.3089 281.367 32.8764 282.976 34.7739C284.585 36.6714 285.822 38.7751 286.647 41.0851C287.472 43.3951 287.926 45.8289 287.926 48.3864C287.926 57.2139 283.512 63.6489 274.685 67.7326C286.276 71.4037 292.051 78.5812 292.051 89.265C292.051 94.215 290.772 98.6287 288.256 102.589C285.74 106.549 282.316 109.436 278.026 111.334C275.345 112.447 272.251 113.231 268.786 113.726C265.321 114.221 261.237 114.427 256.576 114.427V114.386ZM236.693 39.6414V62.4114H253.028C257.483 62.4114 260.907 61.9989 263.341 61.1326C265.775 60.2664 267.631 58.6989 268.91 56.3064C269.9 54.6151 270.395 52.7589 270.395 50.6551C270.395 46.2001 268.827 43.2301 265.651 41.7864C262.475 40.3426 257.648 39.6001 251.172 39.6001H236.693V39.6414ZM255.256 75.24H236.693V100.98H255.875C267.92 100.98 273.983 96.6487 273.983 87.945C273.983 83.49 272.416 80.2725 269.281 78.2512C266.146 76.23 261.485 75.24 255.256 75.24Z" fill="white"/>
<path d="M314.652 41.5388C312.383 41.5388 310.403 40.8376 308.794 39.4351C307.185 38.0326 306.36 36.0526 306.36 33.4951C306.36 31.1851 307.185 29.2463 308.835 27.7613C310.485 26.2763 312.424 25.4926 314.652 25.4926C316.879 25.4926 318.653 26.1938 320.303 27.5551C321.953 28.9163 322.778 30.8963 322.778 33.4951C322.778 36.0938 321.994 37.9913 320.385 39.4351C318.777 40.8788 316.879 41.5801 314.693 41.5801L314.652 41.5388ZM322.778 58.4926V105.93C322.778 109.23 321.994 111.705 320.427 113.396C318.859 115.087 316.879 115.912 314.487 115.912C312.094 115.912 310.114 115.046 308.629 113.314C307.144 111.581 306.402 109.106 306.402 105.93V58.9876C306.402 55.7288 307.144 53.2951 308.629 51.6451C310.114 49.9951 312.094 49.1701 314.487 49.1701C316.879 49.1701 318.859 49.9951 320.427 51.6451C321.994 53.2951 322.778 55.5638 322.778 58.4926Z" fill="white"/>
<path d="M400.125 61.1737V108.859C400.125 114.304 399.548 119.006 398.393 122.925C397.238 126.844 395.382 130.102 392.783 132.66C390.184 135.217 386.843 137.115 382.718 138.352C378.593 139.59 373.437 140.209 367.249 140.209C361.598 140.209 356.565 139.425 352.11 137.816C347.655 136.207 344.232 134.186 341.839 131.67C339.447 129.154 338.25 126.596 338.25 123.956C338.25 121.935 338.952 120.326 340.313 119.047C341.674 117.769 343.324 117.15 345.263 117.15C347.655 117.15 349.759 118.222 351.574 120.326C352.44 121.399 353.348 122.512 354.297 123.585C355.245 124.657 356.277 125.647 357.432 126.431C358.587 127.215 359.948 127.792 361.557 128.164C363.165 128.535 365.022 128.741 367.084 128.741C371.333 128.741 374.633 128.164 376.984 126.967C379.335 125.771 380.985 124.121 381.934 122.017C382.883 119.914 383.419 117.604 383.584 115.211C383.749 112.819 383.873 108.9 383.955 103.537C381.439 107.085 378.51 109.766 375.21 111.581C371.91 113.396 367.992 114.345 363.413 114.345C357.927 114.345 353.101 112.942 349.017 110.137C344.933 107.332 341.757 103.414 339.571 98.3399C337.384 93.2662 336.271 87.4499 336.271 80.8499C336.271 75.8999 336.93 71.4862 338.292 67.4849C339.653 63.4837 341.55 60.1837 344.025 57.4612C346.5 54.7387 349.388 52.6762 352.606 51.3149C355.823 49.9537 359.412 49.2524 363.289 49.2524C367.95 49.2524 371.952 50.1599 375.376 51.9337C378.799 53.7074 381.934 56.5124 384.863 60.3074V58.0799C384.863 55.2337 385.564 53.0474 386.967 51.4799C388.369 49.9124 390.184 49.1287 392.371 49.1287C395.547 49.1287 397.651 50.1599 398.682 52.2224C399.713 54.2849 400.249 57.2549 400.249 61.1324L400.125 61.1737ZM352.564 81.9637C352.564 88.6049 354.008 93.6374 356.896 97.0612C359.783 100.485 363.578 102.176 368.198 102.176C370.92 102.176 373.478 101.434 375.912 99.9899C378.345 98.5462 380.325 96.3187 381.852 93.3899C383.378 90.4612 384.121 86.8724 384.121 82.6649C384.121 75.9824 382.635 70.7437 379.707 67.0312C376.778 63.3187 372.901 61.4212 368.074 61.4212C363.248 61.4212 359.618 63.1949 356.772 66.7837C353.925 70.3724 352.523 75.4049 352.523 82.0049L352.564 81.9637Z" fill="white"/>
<path d="M428.922 26.2353H452.187C458.251 26.2353 463.448 26.8128 467.78 27.9266C472.111 29.0403 476.03 31.1441 479.577 34.2378C488.776 42.0753 493.355 54.0378 493.355 70.0844C493.355 75.3644 492.901 80.1906 491.952 84.5631C491.003 88.9356 489.601 92.8544 487.703 96.3606C485.806 99.8669 483.331 103.002 480.32 105.766C477.968 107.911 475.37 109.602 472.565 110.881C469.76 112.159 466.748 113.067 463.49 113.603C460.231 114.139 456.642 114.387 452.6 114.387H429.335C426.076 114.387 423.642 113.892 421.992 112.902C420.342 111.912 419.27 110.551 418.775 108.736C418.28 106.921 418.032 104.652 418.032 101.806V37.1666C418.032 33.3303 418.898 30.5253 420.631 28.7928C422.363 27.0603 425.127 26.1941 429.005 26.1941L428.922 26.2353ZM435.852 40.3841V100.197H449.382C452.352 100.197 454.662 100.114 456.353 99.9494C458.045 99.7844 459.777 99.3719 461.592 98.7531C463.407 98.1344 464.975 97.2269 466.295 96.0306C472.276 90.9981 475.246 82.2944 475.246 69.9194C475.246 61.2153 473.926 54.6978 471.286 50.3666C468.646 46.0353 465.428 43.2716 461.592 42.1166C457.756 40.9616 453.095 40.3428 447.65 40.3428H435.852V40.3841Z" fill="white"/>
<path d="M553.657 86.5432H521.564C521.564 90.2557 522.348 93.5557 523.792 96.402C525.235 99.2482 527.215 101.393 529.608 102.837C532 104.281 534.723 104.982 537.652 104.982C539.632 104.982 541.405 104.734 543.014 104.281C544.623 103.827 546.232 103.084 547.758 102.136C549.284 101.187 550.687 100.114 551.965 98.9595C553.244 97.8045 554.894 96.3195 556.957 94.3807C557.782 93.6795 559.019 93.3082 560.545 93.3082C562.237 93.3082 563.598 93.762 564.629 94.7107C565.66 95.6595 566.197 96.9382 566.197 98.6295C566.197 100.114 565.619 101.847 564.464 103.827C563.309 105.807 561.535 107.704 559.184 109.519C556.833 111.334 553.904 112.861 550.357 114.057C546.809 115.253 542.725 115.872 538.147 115.872C527.587 115.872 519.419 112.861 513.562 106.838C507.704 100.816 504.775 92.6482 504.775 82.377C504.775 77.5095 505.477 73.0132 506.92 68.8882C508.364 64.7629 510.468 61.1741 513.232 58.2041C515.995 55.2341 519.419 52.9654 523.462 51.3979C527.504 49.8304 532 49.0054 536.909 49.0054C543.303 49.0054 548.83 50.3666 553.409 53.0479C557.988 55.7291 561.453 59.2354 563.722 63.5254C565.99 67.8154 567.145 72.1882 567.145 76.6432C567.145 80.7682 565.949 83.4495 563.598 84.687C561.247 85.9245 557.905 86.502 553.615 86.502L553.657 86.5432ZM521.564 77.2207H551.305C550.893 71.6107 549.367 67.4029 546.768 64.6391C544.169 61.8754 540.704 60.4729 536.414 60.4729C532.124 60.4729 528.948 61.8754 526.349 64.7216C523.75 67.5679 522.142 71.7345 521.564 77.262V77.2207Z" fill="white"/>
<path d="M589.541 59.3999L602.824 96.6899L617.138 57.7912C618.251 54.6562 619.365 52.4699 620.438 51.1499C621.51 49.8299 623.16 49.2112 625.388 49.2112C627.491 49.2112 629.224 49.9124 630.709 51.3149C632.194 52.7174 632.895 54.3262 632.895 56.1824C632.895 56.8837 632.771 57.7499 632.483 58.6987C632.194 59.6474 631.905 60.5549 631.575 61.4212C631.245 62.2874 630.874 63.2362 630.42 64.3087L614.663 103.372C614.209 104.486 613.631 105.93 612.93 107.621C612.229 109.312 611.445 110.797 610.579 112.035C609.713 113.272 608.64 114.221 607.403 114.881C606.165 115.541 604.598 115.912 602.824 115.912C600.514 115.912 598.616 115.376 597.255 114.304C595.894 113.231 594.863 112.076 594.203 110.797C593.543 109.519 592.429 107.044 590.861 103.331L575.228 64.6799C574.856 63.7312 574.485 62.7412 574.114 61.7924C573.743 60.8437 573.413 59.8537 573.165 58.8637C572.918 57.8737 572.794 57.0074 572.794 56.2649C572.794 55.1512 573.124 54.0374 573.825 52.9237C574.526 51.8099 575.434 50.9024 576.671 50.2012C577.909 49.4999 579.188 49.1287 580.59 49.1287C583.313 49.1287 585.169 49.9124 586.2 51.4799C587.231 53.0474 588.345 55.6874 589.624 59.3587L589.541 59.3999Z" fill="white"/>
<path d="M712.841 87.945C712.841 93.2663 711.439 98.0513 708.716 102.3C705.994 106.549 701.951 109.89 696.671 112.283C691.391 114.675 685.121 115.871 677.861 115.871C669.158 115.871 661.98 114.221 656.329 110.921C652.328 108.57 649.069 105.394 646.553 101.434C644.036 97.4738 642.799 93.6375 642.799 89.925C642.799 87.78 643.541 85.9238 645.026 84.3563C646.511 82.7888 648.45 82.0463 650.76 82.0463C652.658 82.0463 654.225 82.665 655.545 83.8613C656.865 85.0575 657.979 86.8313 658.886 89.2238C660 92.0288 661.196 94.38 662.516 96.2775C663.836 98.175 665.651 99.7013 668.044 100.939C670.436 102.176 673.53 102.754 677.367 102.754C682.647 102.754 686.936 101.516 690.236 99.0413C693.536 96.5663 695.186 93.5138 695.186 89.8013C695.186 86.8725 694.279 84.48 692.505 82.665C690.731 80.85 688.421 79.4475 685.575 78.4988C682.729 77.55 678.975 76.5188 674.231 75.4463C667.879 73.9613 662.599 72.2288 658.309 70.2488C654.019 68.2689 650.636 65.5464 648.161 62.1226C645.686 58.6989 644.408 54.4501 644.408 49.3351C644.408 44.2201 645.728 40.1776 648.368 36.4239C651.008 32.6701 654.844 29.7414 659.835 27.7201C664.826 25.6989 670.725 24.6676 677.531 24.6676C682.935 24.6676 687.596 25.3276 691.556 26.6889C695.516 28.0501 698.775 29.8239 701.415 32.0514C704.055 34.2789 705.911 36.6301 707.108 39.0639C708.304 41.4976 708.923 43.8901 708.923 46.2001C708.923 48.3451 708.18 50.2426 706.654 51.9339C705.128 53.6251 703.271 54.4914 701.044 54.4914C698.981 54.4914 697.455 53.9964 696.383 52.9651C695.31 51.9339 694.196 50.2839 692.918 47.9326C691.309 44.5914 689.37 41.9926 687.143 40.1364C684.915 38.2801 681.286 37.3314 676.335 37.3314C671.715 37.3314 668.003 38.3626 665.156 40.3839C662.31 42.4051 660.908 44.8389 660.908 47.6851C660.908 49.4589 661.403 50.9851 662.352 52.2639C663.301 53.5426 664.62 54.6564 666.311 55.5639C668.003 56.4714 669.694 57.2139 671.426 57.7089C673.159 58.2039 676.005 58.9876 679.965 59.9776C684.915 61.1326 689.411 62.4114 693.454 63.8139C697.496 65.2164 700.92 66.9076 703.725 68.9288C706.53 70.95 708.758 73.4663 710.325 76.5188C711.893 79.5713 712.718 83.325 712.718 87.78L712.841 87.945Z" fill="white"/>
<path d="M788.288 82.5412C788.288 87.4499 787.545 91.9462 786.019 96.0712C784.493 100.196 782.307 103.744 779.419 106.714C776.532 109.684 773.067 111.952 769.065 113.52C765.064 115.087 760.568 115.912 755.536 115.912C750.503 115.912 746.089 115.129 742.129 113.52C738.169 111.911 734.704 109.642 731.817 106.631C728.929 103.62 726.702 100.114 725.217 96.0299C723.732 91.9462 722.989 87.4499 722.989 82.5412C722.989 77.6324 723.732 73.0124 725.258 68.8874C726.784 64.7624 728.97 61.2149 731.817 58.2862C734.663 55.3574 738.128 53.0887 742.171 51.5212C746.213 49.9537 750.668 49.1287 755.577 49.1287C760.485 49.1287 765.064 49.9124 769.107 51.5212C773.149 53.1299 776.614 55.3987 779.502 58.3687C782.389 61.3387 784.575 64.8449 786.06 68.9699C787.545 73.0949 788.329 77.5499 788.329 82.4999L788.288 82.5412ZM771.829 82.5412C771.829 75.8587 770.344 70.6199 767.415 66.9074C764.487 63.1949 760.527 61.2974 755.536 61.2974C752.318 61.2974 749.513 62.1224 747.038 63.7724C744.563 65.4224 742.707 67.8974 741.387 71.1562C740.067 74.4149 739.407 78.2099 739.407 82.4999C739.407 86.7899 740.067 90.5437 741.345 93.7612C742.624 96.9787 744.522 99.4124 746.956 101.145C749.389 102.877 752.236 103.702 755.536 103.702C760.486 103.702 764.445 101.846 767.415 98.0924C770.385 94.3387 771.829 89.1824 771.829 82.5412Z" fill="white"/>
<path d="M862.664 82.5412C862.664 87.4499 861.921 91.9462 860.395 96.0712C858.869 100.196 856.683 103.744 853.795 106.714C850.908 109.684 847.443 111.952 843.441 113.52C839.44 115.087 834.944 115.912 829.911 115.912C824.879 115.912 820.465 115.129 816.505 113.52C812.545 111.911 809.08 109.642 806.193 106.631C803.305 103.62 801.078 100.114 799.593 96.0299C798.108 91.9462 797.365 87.4499 797.365 82.5412C797.365 77.6324 798.108 73.0124 799.634 68.8874C801.16 64.7624 803.346 61.2149 806.193 58.2862C809.039 55.3574 812.504 53.0887 816.546 51.5212C820.589 49.9537 825.044 49.1287 829.953 49.1287C834.861 49.1287 839.44 49.9124 843.483 51.5212C847.525 53.1299 850.99 55.3987 853.878 58.3687C856.765 61.3387 858.951 64.8449 860.436 68.9699C861.921 73.0949 862.705 77.5499 862.705 82.4999L862.664 82.5412ZM846.205 82.5412C846.205 75.8587 844.72 70.6199 841.791 66.9074C838.863 63.1949 834.903 61.2974 829.911 61.2974C826.694 61.2974 823.889 62.1224 821.414 63.7724C818.939 65.4224 817.083 67.8974 815.763 71.1562C814.443 74.4149 813.783 78.2099 813.783 82.4999C813.783 86.7899 814.443 90.5437 815.721 93.7612C817 96.9787 818.898 99.4124 821.331 101.145C823.765 102.877 826.611 103.702 829.911 103.702C834.861 103.702 838.821 101.846 841.791 98.0924C844.761 94.3387 846.205 89.1824 846.205 82.5412Z" fill="white"/>
<path d="M890.504 58.2451V60.2252C893.392 56.4302 896.527 53.6251 899.95 51.8514C903.374 50.0776 907.334 49.1701 911.789 49.1701C916.244 49.1701 919.998 50.1189 923.38 52.0164C926.763 53.9139 929.32 56.5539 931.012 60.0189C932.084 62.0401 932.785 64.1852 933.115 66.4952C933.445 68.8051 933.61 71.7751 933.61 75.4051V105.93C933.61 109.23 932.868 111.705 931.342 113.396C929.815 115.088 927.877 115.913 925.484 115.913C923.092 115.913 921.07 115.046 919.544 113.314C918.018 111.581 917.275 109.106 917.275 105.93V78.5813C917.275 73.1776 916.533 69.0113 915.007 66.1652C913.48 63.319 910.51 61.8751 906.014 61.8751C903.085 61.8751 900.404 62.7414 898.012 64.4739C895.619 66.2064 893.845 68.599 892.732 71.6513C891.948 74.0851 891.535 78.6638 891.535 85.3463V105.889C891.535 109.23 890.752 111.705 889.225 113.355C887.699 115.005 885.678 115.83 883.244 115.83C880.81 115.83 878.954 114.964 877.428 113.231C875.902 111.499 875.159 109.024 875.159 105.848V58.4101C875.159 55.2751 875.86 52.9651 877.222 51.3976C878.583 49.8301 880.439 49.0876 882.832 49.0876C884.275 49.0876 885.595 49.4176 886.75 50.1189C887.905 50.8201 888.854 51.8102 889.555 53.1715C890.257 54.5327 890.628 56.1827 890.628 58.1627L890.504 58.2451Z" fill="white"/>
<path d="M129.526 105.806L128.495 83.4901C128.495 83.4901 128.495 83.4076 128.536 83.3663L160.753 51.1498C160.753 51.1498 160.794 51.1085 160.794 51.026L159.391 19.5935L158.814 6.51727V6.26977C158.814 6.26977 158.731 6.10477 158.649 6.10477L145.408 5.52727H145.366L113.934 4.16602C113.934 4.16602 113.851 4.16602 113.81 4.20727L81.5938 36.4235C81.5938 36.4235 81.5525 36.4648 81.47 36.4648L59.1538 35.4335C59.1538 35.4335 59.0713 35.4335 59.0301 35.4748L27.0201 67.4848C27.0201 67.4848 26.9788 67.7735 27.0613 67.7735L51.5226 70.9913H51.5638L93.7213 113.231H93.7625L97.0213 137.775C97.0213 137.899 97.1863 137.94 97.31 137.816L129.32 105.806C129.32 105.806 129.361 105.765 129.361 105.683L129.526 105.806ZM132.826 63.3185C132.826 63.3185 132.703 63.3598 132.661 63.3598L119.791 59.0698H119.75L112.696 56.6773L109.479 55.646L109.355 55.5223L106.014 45.2923L105.931 45.0448L101.683 32.381C101.683 32.381 101.683 32.2573 101.724 32.216L117.193 16.7473C117.193 16.7473 117.234 16.706 117.316 16.706L133.445 17.5723H133.775H133.816L146.604 18.2323C146.604 18.2323 146.728 18.2735 146.769 18.3148C146.769 18.3148 146.769 18.3423 146.769 18.3973L147.429 31.2673C147.429 31.2673 147.429 31.3498 147.47 31.391L148.336 47.7673C148.336 47.7673 148.336 47.8498 148.295 47.891L132.826 63.3598V63.3185Z" fill="#9F7AEA"/>
<path d="M128.079 30.7313C126.347 32.4638 123.583 32.4226 121.85 30.7313C121.562 30.4426 121.314 30.1538 121.149 29.7826C120.2 28.1326 120.407 25.9463 121.809 24.5026C123.212 23.0588 125.439 22.8526 127.13 23.8013C127.46 23.9663 127.79 24.2138 128.079 24.5026C129.812 26.2351 129.812 29.0401 128.079 30.7313Z" fill="#9F7AEA"/>
<path d="M140.502 43.1478C139.059 44.5915 136.914 44.7978 135.264 43.849C134.934 43.684 134.604 43.4365 134.315 43.1478C132.583 41.4153 132.583 38.6515 134.315 36.919C136.048 35.1865 138.853 35.1865 140.544 36.919C140.833 37.2078 141.08 37.4965 141.245 37.8678C142.194 39.5178 141.946 41.704 140.502 43.1478Z" fill="white"/>
<path d="M54.3632 142.189L4.20312 161.782L4.73938 160.256L22.7657 110.632C22.7657 110.632 55.9719 95.0399 56.0132 95.1224L69.873 108.982L54.3632 142.23V142.189Z" fill="#ED8936"/>
<path d="M54.3632 142.189L4.20312 161.782L4.73938 160.256L22.7657 110.632C22.7657 110.632 55.9719 95.0399 56.0132 95.1224L69.873 108.982L54.3632 142.23V142.189Z" fill="#ED8936"/>
<path d="M17.7376 94.7924L9.61135 98.6286L5.07384 111.086C3.01134 105.517 1.56759 99.7836 0.783842 93.9261C0.783842 93.9261 0.783842 93.9124 0.783842 93.8849C-2.59866 69.1349 5.15634 43.1473 24.1314 24.1723C43.8901 4.37227 71.2802 -3.25897 96.8552 1.23727C97.0202 1.23727 97.0202 1.40227 96.8965 1.52602L81.9227 16.4998C81.9227 16.4998 81.8815 16.541 81.8402 16.4998C65.1751 16.6648 48.5514 23.141 35.8876 35.8048C23.5951 48.0973 17.1189 64.1435 16.6239 80.2724L39.0639 83.2836C39.0639 83.2836 39.2289 83.4486 39.1051 83.5724L36.9601 85.7174L17.7789 94.7099L17.7376 94.7924Z" fill="white"/>
<path d="M134.315 43.1478C132.583 41.4153 132.583 38.6515 134.315 36.919C136.048 35.1865 138.853 35.1865 140.544 36.919C142.235 38.6515 142.235 41.4153 140.544 43.1478C138.853 44.8803 136.089 44.8803 134.356 43.1478H134.315Z" fill="#B794F4"/>
<path d="M129.444 105.929L97.4341 137.939C97.4341 137.939 97.1453 137.981 97.1453 137.898L93.8866 113.396H93.8453L72.8903 92.358C72.8491 92.3168 72.8491 92.193 72.8903 92.1105L109.314 55.6871C109.314 55.6871 109.397 55.6871 109.479 55.6871L112.655 56.7184L119.709 59.0696H119.75L132.62 63.4009C132.662 63.4009 132.744 63.4009 132.785 63.3596L148.254 47.8909C148.254 47.8909 148.295 47.8496 148.295 47.7671L147.429 31.3909C147.429 31.3909 147.429 31.3909 147.429 31.3084L146.769 18.4384C146.769 18.4384 146.769 18.3971 146.769 18.3559C146.769 18.3559 146.769 18.2734 146.81 18.2321L158.567 6.4759C158.567 6.4759 158.855 6.43465 158.855 6.59965L159.433 19.6759L160.835 51.1084C160.835 51.1084 160.835 51.1909 160.794 51.2321L128.578 83.448C128.578 83.448 128.578 83.5305 128.537 83.5718L129.568 105.888C129.568 105.888 129.568 105.971 129.527 106.012L129.444 105.929Z" fill="#B794F4"/>
<path d="M140.867 140.91C121.892 159.885 95.905 167.64 71.155 164.257C71.155 164.257 71.1137 164.257 71.0725 164.257C67.1124 163.721 63.1524 162.896 59.3162 161.7C57.7899 161.246 56.2637 160.751 54.7787 160.256C54.5312 160.215 54.3662 160.132 54.2012 160.009L66.5349 155.182L70.2475 147.262L76.4762 133.98L79.3225 127.957L81.385 125.895C81.385 125.895 81.6737 125.854 81.715 125.977L82.045 128.452L84.685 148.211V148.376H84.85C89.0162 148.211 93.2237 147.716 97.2662 146.726C98.1325 146.561 98.9162 146.355 99.8237 146.107C102.959 145.282 106.052 144.169 109.105 142.849C109.847 142.519 110.549 142.189 111.25 141.859C117.767 138.724 123.79 134.516 129.152 129.154C141.857 116.449 148.334 99.825 148.416 83.16C148.416 83.1187 148.416 83.0775 148.457 83.0362L163.472 68.0215C163.472 68.0215 163.72 68.0215 163.761 68.1452C168.216 93.7612 160.667 121.11 140.867 140.91Z" fill="white"/>
<path d="M84.8066 148.376H84.6416V148.211C84.6416 148.211 84.7241 148.376 84.8066 148.376Z" fill="#B794F4"/>
<path opacity="0.2" d="M159.344 19.7584L147.712 31.3909C147.712 31.3909 147.423 31.3909 147.423 31.2671L146.763 18.3559C146.763 18.3559 146.68 18.1909 146.598 18.1909L133.769 17.5309C133.769 17.5309 133.563 17.3659 133.645 17.2421L145.278 5.60961C145.278 5.60961 145.36 5.56836 145.402 5.56836L158.643 6.14586C158.643 6.14586 158.808 6.22835 158.808 6.31085L159.385 19.6346C159.385 19.6346 159.385 19.7171 159.344 19.7584Z" fill="white"/>
<path opacity="0.2" d="M105.683 45.2507C105.683 45.2507 105.93 45.2095 105.971 45.292L109.312 55.522L109.437 55.6457L112.653 56.677L119.707 59.0282H119.749C119.749 59.0282 119.79 59.2757 119.749 59.317L79.9016 99.1643C79.9016 99.1643 79.7359 99.2055 79.6534 99.1643L65.7937 85.3043C65.7937 85.3043 65.7525 85.1393 65.7937 85.0568L105.641 45.2095L105.683 45.2507Z" fill="white"/>
<path d="M69.873 108.941L54.3632 142.189L4.20312 161.782L4.73938 160.256L62.9432 102.052L69.873 108.982V108.941Z" fill="#F6AD55"/>
</g>
</svg>
