<svg width="1713" height="309" viewBox="0 0 1713 309" fill="none" xmlns="http://www.w3.org/2000/svg">
<rect y="51.4766" width="205.904" height="205.904" rx="22.0611" fill="#086CD9"/>
<path d="M323.744 223.655C313.694 223.655 304.563 222.123 296.352 219.059C288.14 215.994 281.032 211.521 275.026 205.638C269.021 199.755 264.424 192.585 261.238 184.128C258.051 175.549 256.458 165.805 256.458 154.897C256.458 144.112 258.051 134.491 261.238 126.034C264.424 117.455 269.021 110.224 275.026 104.341C281.032 98.4576 288.14 93.9841 296.352 90.92C304.563 87.856 313.694 86.324 323.744 86.324C335.265 86.324 345.499 88.3462 354.446 92.3908C363.393 96.3128 370.624 101.828 376.14 108.937C381.655 116.045 385.025 124.441 386.251 134.123H357.204C356.101 129.466 354.017 125.421 350.953 121.989C347.889 118.435 344.028 115.678 339.371 113.717C334.836 111.756 329.627 110.775 323.744 110.775C316.023 110.775 309.343 112.43 303.706 115.739C298.068 118.925 293.717 123.828 290.653 130.446C287.589 136.942 286.057 145.092 286.057 154.897C286.057 162.374 286.915 168.869 288.63 174.385C290.469 179.9 292.981 184.496 296.168 188.173C299.477 191.85 303.46 194.607 308.118 196.446C312.775 198.284 317.984 199.203 323.744 199.203C329.505 199.203 334.714 198.223 339.371 196.262C344.028 194.301 347.889 191.543 350.953 187.989C354.14 184.435 356.223 180.329 357.204 175.672H386.251C385.148 185.354 381.778 193.811 376.14 201.042C370.502 208.151 363.209 213.727 354.262 217.772C345.315 221.694 335.143 223.655 323.744 223.655ZM448.265 223.655C440.789 223.655 434.048 222.552 428.042 220.345C422.037 218.017 416.828 214.646 412.416 210.234C408.003 205.822 404.633 200.49 402.304 194.24C399.976 187.867 398.811 180.697 398.811 172.73C398.811 162.557 400.772 153.672 404.694 146.073C408.616 138.351 414.254 132.346 421.608 128.056C428.961 123.767 437.847 121.622 448.265 121.622C455.619 121.622 462.298 122.786 468.304 125.115C474.309 127.443 479.457 130.814 483.747 135.226C488.159 139.638 491.529 144.97 493.858 151.22C496.309 157.471 497.535 164.641 497.535 172.73C497.535 182.78 495.574 191.666 491.652 199.387C487.73 206.986 482.092 212.93 474.738 217.22C467.507 221.51 458.683 223.655 448.265 223.655ZM448.081 201.777C452.493 201.777 456.354 200.736 459.663 198.652C463.095 196.446 465.669 193.198 467.385 188.908C469.223 184.619 470.142 179.226 470.142 172.73C470.142 167.828 469.652 163.599 468.671 160.045C467.691 156.368 466.22 153.304 464.259 150.853C462.298 148.402 459.97 146.624 457.273 145.521C454.577 144.296 451.574 143.683 448.265 143.683C443.853 143.683 439.931 144.725 436.499 146.808C433.19 148.892 430.616 152.078 428.778 156.368C426.939 160.658 426.02 166.112 426.02 172.73C426.02 177.633 426.51 181.922 427.491 185.599C428.594 189.153 430.126 192.156 432.087 194.607C434.048 196.936 436.376 198.713 439.073 199.939C441.769 201.164 444.772 201.777 448.081 201.777ZM514.749 222V123.46H540.854L541.773 141.293H542.877C545.45 134.675 549.434 129.772 554.826 126.586C560.342 123.276 566.408 121.622 573.027 121.622C579.89 121.622 586.141 123.276 591.779 126.586C597.539 129.895 601.706 135.594 604.28 143.683H605.751C608.202 136.329 612.369 130.814 618.252 127.137C624.135 123.46 630.815 121.622 638.291 121.622C644.664 121.622 650.363 122.97 655.388 125.666C660.536 128.363 664.58 132.714 667.522 138.719C670.463 144.602 671.934 152.507 671.934 162.435V222H644.909V168.318C644.909 162.803 644.296 158.207 643.071 154.53C641.968 150.853 640.068 148.156 637.372 146.441C634.798 144.602 631.489 143.683 627.444 143.683C623.032 143.683 619.294 144.786 616.23 146.992C613.166 149.198 610.837 152.078 609.244 155.633C607.65 159.187 606.854 163.048 606.854 167.215V222H579.829V168.318C579.829 162.803 579.216 158.207 577.99 154.53C576.765 150.853 574.865 148.156 572.291 146.441C569.718 144.602 566.408 143.683 562.364 143.683C557.952 143.683 554.213 144.786 551.149 146.992C548.085 149.198 545.757 152.078 544.163 155.633C542.57 159.187 541.773 163.048 541.773 167.215V222H514.749ZM694.103 252.702V123.46H720.209L721.128 140.558H722.599C724.927 134.92 728.788 130.385 734.181 126.953C739.696 123.399 746.253 121.622 753.852 121.622C759.735 121.622 765.066 122.725 769.846 124.931C774.749 127.015 778.916 130.201 782.348 134.491C785.902 138.78 788.598 144.112 790.437 150.485C792.398 156.858 793.378 164.273 793.378 172.73C793.378 184.006 791.724 193.443 788.414 201.042C785.105 208.641 780.448 214.34 774.442 218.139C768.559 221.939 761.696 223.838 753.852 223.838C748.827 223.838 744.231 223.042 740.064 221.448C735.897 219.855 732.342 217.649 729.401 214.83C726.459 212.011 724.192 208.702 722.599 204.903H721.128V252.702H694.103ZM743.741 201.961C748.153 201.961 752.014 200.919 755.323 198.836C758.632 196.63 761.144 193.382 762.86 189.092C764.699 184.802 765.618 179.348 765.618 172.73C765.618 165.989 764.699 160.474 762.86 156.184C761.144 151.895 758.632 148.708 755.323 146.624C752.014 144.541 748.153 143.499 743.741 143.499C738.716 143.499 734.549 144.663 731.239 146.992C727.93 149.321 725.479 152.324 723.886 156C722.292 159.677 721.496 163.661 721.496 167.95V177.51C721.496 180.697 721.925 183.761 722.783 186.702C723.64 189.521 724.989 192.095 726.827 194.424C728.666 196.63 730.994 198.468 733.813 199.939C736.632 201.287 739.941 201.961 743.741 201.961ZM845.696 223.655C839.813 223.655 834.42 222.613 829.518 220.529C824.738 218.446 820.571 215.259 817.016 210.969C813.585 206.68 810.95 201.348 809.111 194.975C807.273 188.602 806.353 181.187 806.353 172.73C806.353 161.332 807.947 151.895 811.133 144.418C814.443 136.819 819.039 131.12 824.922 127.321C830.927 123.522 837.852 121.622 845.696 121.622C850.843 121.622 855.44 122.418 859.484 124.012C863.651 125.605 867.205 127.811 870.147 130.63C873.211 133.449 875.478 136.758 876.949 140.558H878.42L879.523 123.46H905.445V222H878.42V204.719H876.949C874.743 210.479 870.882 215.075 865.367 218.507C859.852 221.939 853.295 223.655 845.696 223.655ZM855.991 201.777C861.016 201.777 865.122 200.613 868.309 198.284C871.618 195.956 874.069 192.953 875.662 189.276C877.256 185.477 878.052 181.493 878.052 177.326V167.95C878.052 163.661 877.256 159.677 875.662 156C874.069 152.324 871.618 149.321 868.309 146.992C865.122 144.663 861.016 143.499 855.991 143.499C851.579 143.499 847.718 144.541 844.409 146.624C841.1 148.708 838.526 151.895 836.688 156.184C834.849 160.474 833.93 165.989 833.93 172.73C833.93 179.226 834.849 184.68 836.688 189.092C838.526 193.382 841.1 196.568 844.409 198.652C847.718 200.736 851.579 201.777 855.991 201.777ZM928.575 222V123.46H954.496L955.599 141.293H956.702C959.399 134.675 963.566 129.772 969.204 126.586C974.842 123.276 981.154 121.622 988.14 121.622C993.042 121.622 997.577 122.418 1001.74 124.012C1006.03 125.482 1009.71 127.811 1012.77 130.998C1015.96 134.184 1018.41 138.413 1020.13 143.683C1021.97 148.831 1022.89 155.081 1022.89 162.435V222H995.861V168.318C995.861 162.803 995.187 158.207 993.839 154.53C992.613 150.853 990.652 148.156 987.956 146.441C985.259 144.602 981.705 143.683 977.293 143.683C972.636 143.683 968.714 144.786 965.527 146.992C962.34 149.198 959.889 152.078 958.173 155.633C956.457 159.187 955.599 163.048 955.599 167.215V222H928.575ZM1036.59 252.702V230.457H1047.98C1050.8 230.457 1053.13 230.089 1054.97 229.354C1056.93 228.741 1058.52 227.638 1059.75 226.045C1061.1 224.574 1062.2 222.674 1063.06 220.345L1067.84 208.028V219.978L1027.76 123.46H1057.36L1075.38 176.223L1078.5 186.702H1079.42L1082.36 176.223L1099.28 123.46H1128.14L1089.72 226.596C1087.26 233.46 1084.26 238.791 1080.71 242.59C1077.15 246.39 1073.05 249.025 1068.39 250.496C1063.86 251.966 1058.77 252.702 1053.13 252.702H1036.59ZM1142.29 222V87.9785H1239.73V112.43H1164.72L1170.97 106.363V148.463L1164.72 142.396H1230.72V165.376H1164.72L1170.97 159.31V203.616L1164.72 197.549H1240.09V222H1142.29ZM1260.53 222V123.46H1286.45L1287.56 141.293H1288.66C1291.36 134.675 1295.52 129.772 1301.16 126.586C1306.8 123.276 1313.11 121.622 1320.1 121.622C1325 121.622 1329.54 122.418 1333.7 124.012C1337.99 125.482 1341.67 127.811 1344.73 130.998C1347.92 134.184 1350.37 138.413 1352.09 143.683C1353.93 148.831 1354.84 155.081 1354.84 162.435V222H1327.82V168.318C1327.82 162.803 1327.15 158.207 1325.8 154.53C1324.57 150.853 1322.61 148.156 1319.91 146.441C1317.22 144.602 1313.66 143.683 1309.25 143.683C1304.59 143.683 1300.67 144.786 1297.49 146.992C1294.3 149.198 1291.85 152.078 1290.13 155.633C1288.42 159.187 1287.56 163.048 1287.56 167.215V222H1260.53ZM1377.05 222V123.46H1401.5L1402.6 139.271H1403.52C1405.73 132.897 1409.22 128.485 1414 126.034C1418.91 123.46 1424.48 122.173 1430.73 122.173C1431.84 122.173 1432.82 122.173 1433.67 122.173C1434.53 122.173 1435.39 122.173 1436.25 122.173V147.544C1435.64 147.544 1434.78 147.544 1433.67 147.544C1432.57 147.544 1431.41 147.544 1430.18 147.544C1424.18 147.544 1419.27 148.463 1415.47 150.301C1411.67 152.017 1408.86 154.591 1407.02 158.023C1405.18 161.454 1404.2 165.622 1404.08 170.524V222H1377.05ZM1450.48 222V123.46H1477.5V222H1450.48ZM1450.48 110.775V87.9785H1477.5V110.775H1450.48ZM1543.77 223.655C1536.42 223.655 1529.74 222.49 1523.73 220.162C1517.72 217.71 1512.52 214.217 1508.1 209.683C1503.81 205.148 1500.5 199.755 1498.18 193.504C1495.97 187.254 1494.87 180.329 1494.87 172.73C1494.87 162.312 1496.89 153.304 1500.93 145.705C1504.98 138.106 1510.74 132.223 1518.21 128.056C1525.69 123.767 1534.52 121.622 1544.69 121.622C1553.14 121.622 1560.62 123.215 1567.12 126.402C1573.74 129.588 1579.01 134.001 1582.93 139.638C1586.85 145.276 1588.99 151.833 1589.36 159.31H1562.89C1562.4 155.878 1561.23 152.998 1559.4 150.669C1557.68 148.34 1555.47 146.624 1552.78 145.521C1550.2 144.296 1547.26 143.683 1543.95 143.683C1539.3 143.683 1535.31 144.909 1532 147.36C1528.69 149.688 1526.24 153.059 1524.65 157.471C1523.06 161.761 1522.26 166.847 1522.26 172.73C1522.26 179.226 1523.12 184.619 1524.83 188.908C1526.67 193.075 1529.18 196.262 1532.37 198.468C1535.68 200.552 1539.48 201.593 1543.77 201.593C1547.69 201.593 1551 200.919 1553.7 199.571C1556.52 198.223 1558.72 196.323 1560.31 193.872C1562.03 191.421 1563.01 188.663 1563.26 185.599H1589.55C1589.18 193.321 1586.97 200.061 1582.93 205.822C1579.01 211.46 1573.67 215.872 1566.93 219.059C1560.19 222.123 1552.47 223.655 1543.77 223.655ZM1606.14 222V87.9785H1633.16V141.293H1634.26C1636.96 134.675 1641.13 129.772 1646.77 126.586C1652.4 123.276 1658.72 121.622 1665.7 121.622C1670.6 121.622 1675.14 122.418 1679.31 124.012C1683.6 125.482 1687.27 127.811 1690.34 130.998C1693.52 134.184 1695.97 138.413 1697.69 143.683C1699.53 148.831 1700.45 155.081 1700.45 162.435V222H1673.42V168.318C1673.42 162.803 1672.75 158.207 1671.4 154.53C1670.17 150.853 1668.21 148.156 1665.52 146.441C1662.82 144.602 1659.27 143.683 1654.85 143.683C1650.2 143.683 1646.28 144.786 1643.09 146.992C1639.9 149.198 1637.45 152.078 1635.73 155.633C1634.02 159.187 1633.16 163.048 1633.16 167.215V222H1606.14Z" fill="black"/>
<path d="M93.7605 205.906C89.5253 205.906 85.2901 204.225 82.064 200.879L48.9765 166.563C42.5078 159.854 42.5078 149.01 48.9765 142.302L82.064 107.986C88.5327 101.277 98.9883 101.277 105.457 107.986C111.926 114.694 111.926 125.538 105.457 132.247L84.0658 154.432L105.457 176.617C111.926 183.326 111.926 194.17 105.457 200.879C102.231 204.225 97.9957 205.906 93.7605 205.906Z" fill="white"/>
<path d="M112.149 205.906C107.914 205.906 103.679 204.225 100.453 200.879C93.9844 194.17 93.9844 183.326 100.453 176.617L121.844 154.432L100.453 132.247C93.9844 125.538 93.9844 114.694 100.453 107.986C106.922 101.277 117.377 101.277 123.846 107.986L156.934 142.302C163.402 149.01 163.402 159.854 156.934 166.563L123.846 200.879C120.62 204.225 116.385 205.906 112.149 205.906Z" fill="white" fill-opacity="0.71"/>
</svg>
