<svg width="1714" height="311" viewBox="0 0 1714 311" fill="none" xmlns="http://www.w3.org/2000/svg">
<rect y="51.9258" width="206.144" height="206.144" rx="22.0869" fill="#086CD9"/>
<path d="M324.127 224.047C314.066 224.047 304.924 222.513 296.703 219.446C288.482 216.378 281.365 211.899 275.352 206.01C269.34 200.12 264.738 192.941 261.548 184.475C258.357 175.885 256.762 166.13 256.762 155.21C256.762 144.412 258.357 134.779 261.548 126.313C264.738 117.723 269.34 110.484 275.352 104.594C281.365 98.704 288.482 94.2252 296.703 91.1576C304.924 88.09 314.066 86.5562 324.127 86.5562C335.662 86.5562 345.908 88.5808 354.865 92.6301C363.822 96.5566 371.062 102.078 376.584 109.195C382.105 116.312 385.48 124.717 386.707 134.411H357.626C356.521 129.748 354.436 125.699 351.368 122.263C348.3 118.705 344.435 115.944 339.772 113.981C335.232 112.017 330.017 111.036 324.127 111.036C316.397 111.036 309.71 112.692 304.065 116.005C298.421 119.196 294.065 124.104 290.997 130.73C287.929 137.233 286.396 145.393 286.396 155.21C286.396 162.695 287.255 169.198 288.972 174.72C290.813 180.241 293.328 184.843 296.519 188.524C299.832 192.205 303.82 194.966 308.482 196.807C313.145 198.647 318.36 199.567 324.127 199.567C329.895 199.567 335.109 198.586 339.772 196.623C344.435 194.659 348.3 191.898 351.368 188.34C354.558 184.782 356.644 180.671 357.626 176.008H386.707C385.603 185.702 382.228 194.168 376.584 201.408C370.939 208.525 363.638 214.108 354.681 218.157C345.723 222.084 335.539 224.047 324.127 224.047ZM448.793 224.047C441.308 224.047 434.559 222.943 428.547 220.734C422.534 218.403 417.319 215.028 412.902 210.611C408.485 206.194 405.11 200.856 402.779 194.598C400.447 188.217 399.282 181.039 399.282 173.063C399.282 162.879 401.245 153.983 405.172 146.375C409.098 138.644 414.743 132.632 422.105 128.337C429.467 124.043 438.363 121.895 448.793 121.895C456.156 121.895 462.843 123.061 468.856 125.392C474.868 127.724 480.022 131.098 484.316 135.515C488.734 139.933 492.108 145.271 494.44 151.528C496.894 157.786 498.121 164.965 498.121 173.063C498.121 183.125 496.157 192.021 492.231 199.752C488.304 207.359 482.66 213.31 475.298 217.605C468.058 221.9 459.223 224.047 448.793 224.047ZM448.609 202.144C453.027 202.144 456.892 201.101 460.205 199.015C463.641 196.807 466.217 193.555 467.935 189.26C469.776 184.966 470.696 179.567 470.696 173.063C470.696 168.155 470.205 163.922 469.224 160.363C468.242 156.682 466.77 153.614 464.806 151.16C462.843 148.706 460.512 146.927 457.812 145.823C455.113 144.596 452.106 143.982 448.793 143.982C444.376 143.982 440.449 145.025 437.014 147.111C433.701 149.197 431.124 152.387 429.283 156.682C427.443 160.977 426.522 166.437 426.522 173.063C426.522 177.971 427.013 182.266 427.995 185.947C429.099 189.506 430.633 192.512 432.596 194.966C434.559 197.297 436.891 199.077 439.59 200.304C442.29 201.531 445.296 202.144 448.609 202.144ZM515.354 222.391V123.736H541.491L542.411 141.589H543.515C546.092 134.963 550.08 130.055 555.479 126.865C561.001 123.552 567.075 121.895 573.701 121.895C580.572 121.895 586.83 123.552 592.475 126.865C598.242 130.178 602.414 135.884 604.99 143.982H606.463C608.917 136.62 613.089 131.098 618.979 127.417C624.869 123.736 631.556 121.895 639.041 121.895C645.422 121.895 651.128 123.245 656.158 125.944C661.312 128.644 665.361 133 668.306 139.013C671.251 144.902 672.724 152.817 672.724 162.756V222.391H645.667V168.646C645.667 163.124 645.054 158.523 643.827 154.842C642.722 151.16 640.82 148.461 638.121 146.743C635.544 144.902 632.231 143.982 628.182 143.982C623.764 143.982 620.022 145.086 616.954 147.295C613.887 149.504 611.555 152.387 609.96 155.946C608.365 159.504 607.567 163.37 607.567 167.541V222.391H580.511V168.646C580.511 163.124 579.897 158.523 578.67 154.842C577.443 151.16 575.541 148.461 572.964 146.743C570.388 144.902 567.075 143.982 563.025 143.982C558.608 143.982 554.865 145.086 551.798 147.295C548.73 149.504 546.399 152.387 544.804 155.946C543.209 159.504 542.411 163.37 542.411 167.541V222.391H515.354ZM694.918 253.128V123.736H721.055L721.975 140.853H723.447C725.779 135.209 729.644 130.669 735.043 127.233C740.565 123.674 747.129 121.895 754.737 121.895C760.627 121.895 765.965 123 770.75 125.208C775.658 127.294 779.83 130.485 783.266 134.779C786.824 139.074 789.524 144.412 791.365 150.792C793.328 157.173 794.309 164.597 794.309 173.063C794.309 184.352 792.653 193.8 789.34 201.408C786.027 209.016 781.364 214.722 775.352 218.525C769.462 222.329 762.59 224.231 754.737 224.231C749.706 224.231 745.105 223.434 740.933 221.838C736.761 220.243 733.202 218.035 730.257 215.212C727.312 212.39 725.042 209.077 723.447 205.273H721.975V253.128H694.918ZM744.614 202.328C749.031 202.328 752.896 201.285 756.21 199.199C759.523 196.991 762.038 193.739 763.756 189.444C765.596 185.15 766.517 179.689 766.517 173.063C766.517 166.314 765.596 160.793 763.756 156.498C762.038 152.203 759.523 149.013 756.21 146.927C752.896 144.841 749.031 143.798 744.614 143.798C739.583 143.798 735.411 144.964 732.098 147.295C728.785 149.627 726.331 152.633 724.736 156.314C723.141 159.995 722.343 163.983 722.343 168.278V177.849C722.343 181.039 722.772 184.107 723.631 187.052C724.49 189.874 725.84 192.451 727.681 194.782C729.521 196.991 731.853 198.831 734.675 200.304C737.497 201.653 740.81 202.328 744.614 202.328ZM846.688 224.047C840.798 224.047 835.399 223.004 830.491 220.918C825.706 218.832 821.534 215.642 817.975 211.347C814.539 207.052 811.901 201.715 810.061 195.334C808.22 188.954 807.3 181.53 807.3 173.063C807.3 161.652 808.895 152.203 812.085 144.718C815.398 137.111 820 131.405 825.89 127.601C831.902 123.797 838.835 121.895 846.688 121.895C851.842 121.895 856.443 122.693 860.492 124.288C864.664 125.883 868.223 128.092 871.168 130.914C874.235 133.736 876.505 137.049 877.978 140.853H879.45L880.555 123.736H906.507V222.391H879.45V205.089H877.978C875.769 210.856 871.904 215.458 866.382 218.894C860.861 222.329 854.296 224.047 846.688 224.047ZM856.995 202.144C862.026 202.144 866.137 200.979 869.327 198.647C872.64 196.316 875.094 193.31 876.69 189.628C878.285 185.825 879.082 181.837 879.082 177.665V168.278C879.082 163.983 878.285 159.995 876.69 156.314C875.094 152.633 872.64 149.627 869.327 147.295C866.137 144.964 862.026 143.798 856.995 143.798C852.578 143.798 848.713 144.841 845.4 146.927C842.087 149.013 839.51 152.203 837.669 156.498C835.829 160.793 834.908 166.314 834.908 173.063C834.908 179.567 835.829 185.027 837.669 189.444C839.51 193.739 842.087 196.929 845.4 199.015C848.713 201.101 852.578 202.144 856.995 202.144ZM929.664 222.391V123.736H955.616L956.72 141.589H957.824C960.524 134.963 964.696 130.055 970.34 126.865C975.985 123.552 982.304 121.895 989.298 121.895C994.206 121.895 998.747 122.693 1002.92 124.288C1007.21 125.76 1010.89 128.092 1013.96 131.282C1017.15 134.472 1019.61 138.706 1021.32 143.982C1023.16 149.136 1024.09 155.394 1024.09 162.756V222.391H997.029V168.646C997.029 163.124 996.354 158.523 995.004 154.842C993.777 151.16 991.814 148.461 989.114 146.743C986.415 144.902 982.856 143.982 978.439 143.982C973.776 143.982 969.85 145.086 966.659 147.295C963.469 149.504 961.015 152.387 959.297 155.946C957.579 159.504 956.72 163.37 956.72 167.541V222.391H929.664ZM1037.8 253.128V230.857H1049.21C1052.03 230.857 1054.37 230.489 1056.21 229.753C1058.17 229.139 1059.76 228.035 1060.99 226.44C1062.34 224.967 1063.45 223.066 1064.3 220.734L1069.09 208.402V220.366L1028.97 123.736H1058.6L1076.64 176.56L1079.77 187.052H1080.69L1083.63 176.56L1100.56 123.736H1129.46L1090.99 226.992C1088.54 233.864 1085.53 239.201 1081.97 243.005C1078.42 246.809 1074.3 249.447 1069.64 250.92C1065.1 252.392 1060.01 253.128 1054.37 253.128H1037.8ZM1143.63 222.391V88.2127H1241.18V112.692H1166.08L1172.34 106.618V148.768L1166.08 142.694H1232.16V165.701H1166.08L1172.34 159.627V203.985L1166.08 197.911H1241.55V222.391H1143.63ZM1262.01 222.391V123.736H1287.96L1289.07 141.589H1290.17C1292.87 134.963 1297.04 130.055 1302.69 126.865C1308.33 123.552 1314.65 121.895 1321.64 121.895C1326.55 121.895 1331.09 122.693 1335.26 124.288C1339.56 125.76 1343.24 128.092 1346.31 131.282C1349.5 134.472 1351.95 138.706 1353.67 143.982C1355.51 149.136 1356.43 155.394 1356.43 162.756V222.391H1329.37V168.646C1329.37 163.124 1328.7 158.523 1327.35 154.842C1326.12 151.16 1324.16 148.461 1321.46 146.743C1318.76 144.902 1315.2 143.982 1310.78 143.982C1306.12 143.982 1302.2 145.086 1299.01 147.295C1295.81 149.504 1293.36 152.387 1291.64 155.946C1289.92 159.504 1289.07 163.37 1289.07 167.541V222.391H1262.01ZM1378.66 222.391V123.736H1403.14L1404.25 139.565H1405.17C1407.38 133.184 1410.87 128.767 1415.66 126.313C1420.57 123.736 1426.15 122.447 1432.41 122.447C1433.51 122.447 1434.49 122.447 1435.35 122.447C1436.21 122.447 1437.07 122.447 1437.93 122.447V147.847C1437.32 147.847 1436.46 147.847 1435.35 147.847C1434.25 147.847 1433.08 147.847 1431.86 147.847C1425.84 147.847 1420.94 148.768 1417.13 150.608C1413.33 152.326 1410.51 154.903 1408.66 158.339C1406.82 161.774 1405.84 165.946 1405.72 170.855V222.391H1378.66ZM1452.18 222.391V123.736H1479.23V222.391H1452.18ZM1452.18 111.036V88.2127H1479.23V111.036H1452.18ZM1545.58 224.047C1538.21 224.047 1531.53 222.881 1525.51 220.55C1519.5 218.096 1514.29 214.599 1509.87 210.059C1505.57 205.519 1502.26 200.12 1499.93 193.862C1497.72 187.604 1496.62 180.671 1496.62 173.063C1496.62 162.633 1498.64 153.614 1502.69 146.007C1506.74 138.399 1512.51 132.509 1519.99 128.337C1527.48 124.043 1536.31 121.895 1546.5 121.895C1554.96 121.895 1562.45 123.49 1568.95 126.681C1575.58 129.871 1580.85 134.288 1584.78 139.933C1588.71 145.577 1590.85 152.142 1591.22 159.627H1564.72C1564.23 156.191 1563.06 153.308 1561.22 150.976C1559.5 148.645 1557.29 146.927 1554.59 145.823C1552.02 144.596 1549.07 143.982 1545.76 143.982C1541.1 143.982 1537.11 145.209 1533.8 147.663C1530.48 149.995 1528.03 153.369 1526.43 157.786C1524.84 162.081 1524.04 167.173 1524.04 173.063C1524.04 179.567 1524.9 184.966 1526.62 189.26C1528.46 193.432 1530.97 196.623 1534.16 198.831C1537.48 200.917 1541.28 201.96 1545.58 201.96C1549.5 201.96 1552.82 201.285 1555.52 199.936C1558.34 198.586 1560.55 196.684 1562.14 194.23C1563.86 191.776 1564.84 189.015 1565.09 185.947H1591.41C1591.04 193.678 1588.83 200.426 1584.78 206.194C1580.85 211.838 1575.52 216.255 1568.77 219.446C1562.02 222.513 1554.29 224.047 1545.58 224.047ZM1608.02 222.391V88.2127H1635.07V141.589H1636.18C1638.88 134.963 1643.05 130.055 1648.69 126.865C1654.34 123.552 1660.66 121.895 1667.65 121.895C1672.56 121.895 1677.1 122.693 1681.27 124.288C1685.57 125.76 1689.25 128.092 1692.31 131.282C1695.5 134.472 1697.96 138.706 1699.68 143.982C1701.52 149.136 1702.44 155.394 1702.44 162.756V222.391H1675.38V168.646C1675.38 163.124 1674.71 158.523 1673.36 154.842C1672.13 151.16 1670.17 148.461 1667.47 146.743C1664.77 144.902 1661.21 143.982 1656.79 143.982C1652.13 143.982 1648.2 145.086 1645.01 147.295C1641.82 149.504 1639.37 152.387 1637.65 155.946C1635.93 159.504 1635.07 163.37 1635.07 167.541V222.391H1608.02Z" fill="white"/>
<path d="M93.8692 206.536C89.6291 206.536 85.3889 204.853 82.1591 201.503L49.0329 167.147C42.5567 160.43 42.5567 149.574 49.0329 142.857L82.1591 108.501C88.6353 101.785 99.1032 101.785 105.579 108.501C112.056 115.218 112.056 126.074 105.579 132.791L84.1633 155.002L105.579 177.213C112.056 183.93 112.056 194.786 105.579 201.503C102.35 204.853 98.1094 206.536 93.8692 206.536Z" fill="white"/>
<path d="M112.278 206.536C108.038 206.536 103.798 204.853 100.568 201.503C94.0919 194.786 94.0919 183.93 100.568 177.213L121.984 155.002L100.568 132.791C94.0919 126.074 94.0919 115.218 100.568 108.501C107.044 101.785 117.512 101.785 123.988 108.501L157.115 142.857C163.591 149.574 163.591 160.43 157.115 167.147L123.988 201.503C120.758 204.853 116.518 206.536 112.278 206.536Z" fill="white" fill-opacity="0.71"/>
</svg>
