<svg width="906" height="200" viewBox="0 0 906 200" fill="none" xmlns="http://www.w3.org/2000/svg">
<g clip-path="url(#clip0_2861_5)">
<path d="M294.662 111.985C290.67 109.451 285.802 107.33 280.06 105.63C274.169 103.884 268.439 101.879 262.902 99.6286C257.211 97.3225 252.355 93.5225 248.343 88.2301C244.332 82.9271 242.315 76.2256 242.315 68.1013C242.315 58.0831 246.151 49.5271 253.828 42.4438C261.497 35.3604 271.468 31.818 283.739 31.818C288.574 31.818 293.254 32.4044 297.768 33.5892C302.281 34.7725 305.977 36.1528 308.867 37.7377C311.759 39.3241 314.286 40.9301 316.459 42.5771C318.632 44.2256 320.185 45.6453 321.118 46.8498L322.603 48.5801L307.423 65.4241C306.765 64.6119 305.84 63.6225 304.66 62.4392C303.481 61.2544 300.992 59.6892 297.197 57.7331C293.403 55.7771 289.498 54.7983 285.478 54.7983C280.641 54.7983 276.747 56.0968 273.806 58.6922C270.867 61.2862 269.392 64.4256 269.392 68.1119C269.392 72.2619 271.389 75.5862 275.37 78.0892C279.362 80.5907 284.2 82.7104 289.893 84.4407C295.765 86.2304 301.492 88.2486 307.048 90.4862C312.801 92.7922 317.677 96.5922 321.689 101.883C325.7 107.186 327.717 113.889 327.717 122.012C327.717 133.471 323.744 142.83 315.8 150.089C307.855 157.348 296.893 160.983 282.921 160.983C277.458 160.986 272.043 160.267 266.955 158.862C261.813 157.451 257.574 155.763 254.251 153.806C250.928 151.85 247.998 149.863 245.462 147.845C242.935 145.827 241.116 144.129 240.016 142.748L238.117 140.586L253.376 124.689C254.144 125.606 255.236 126.8 256.641 128.273C258.046 129.745 261.163 131.712 266 134.192C270.837 136.663 275.902 137.909 281.181 137.909C287.287 137.909 292.055 136.406 295.496 133.42C298.937 130.424 300.649 126.624 300.649 122.012C300.649 117.853 298.652 114.516 294.662 111.983V111.985ZM353.555 83.3392C362.415 74.3195 372.915 69.821 385.076 69.821C389.365 69.821 393.453 70.4377 397.327 71.6741C401.202 72.9089 404.387 74.3816 406.854 76.0801C409.212 77.6877 411.417 79.4041 413.453 81.218C415.379 82.9483 416.776 84.4513 417.659 85.718L418.899 87.5301L404.544 102.562C404.102 101.759 403.375 100.688 402.362 99.371C401.339 98.0422 399.146 96.3331 395.764 94.2331C392.383 92.1316 388.824 91.0816 385.076 91.0816C379.078 91.0816 373.928 93.4195 369.612 98.0831C365.296 102.748 363.131 108.38 363.131 114.97C363.131 121.57 365.304 127.191 369.65 131.854C373.997 136.52 379.139 138.856 385.076 138.856C388.813 138.856 392.383 137.909 395.764 136.004C399.146 134.11 401.613 132.204 403.147 130.3L405.38 127.365L418.908 142.398C418.575 142.862 418.123 143.51 417.552 144.344C416.973 145.177 415.634 146.589 413.551 148.576C411.551 150.488 409.284 152.253 406.785 153.847C404.368 155.371 401.221 156.782 397.338 158.079C393.513 159.368 389.326 160.033 385.087 160.026C372.935 160.026 362.423 155.515 353.566 146.506C344.706 137.486 340.283 126.963 340.283 114.929C340.283 102.882 344.706 92.3483 353.555 83.3392ZM483.945 94.6134C482.244 94.0377 479.708 93.718 476.355 93.6665C470.358 93.6665 465.619 95.6544 462.129 99.6286C458.638 103.603 456.888 109.306 456.888 116.741V158.295H434.117V71.5513H456.888V82.1756C457.782 81.108 458.716 80.0576 459.69 79.0256C460.9 77.7286 463.555 76.0195 467.655 73.8877C471.754 71.7559 476.062 70.6953 480.564 70.6953H483.945V94.6134ZM542.212 149.482C541.351 150.504 540.43 151.501 539.449 152.468C538.269 153.651 535.693 155.206 531.731 157.132C527.769 159.057 523.65 160.026 519.353 160.026C511.105 160.026 504.389 157.616 499.217 152.807C494.047 148 491.46 142.171 491.46 135.315C491.46 128.23 493.633 122.321 497.979 117.604C502.325 112.879 508.323 109.801 515.962 108.359L542.193 103.438C542.193 99.8134 540.925 96.8377 538.398 94.5422C535.871 92.2347 532.351 91.0816 527.837 91.0816C524.187 91.0618 520.616 91.8311 517.603 93.2862C514.527 94.7574 512.354 96.2619 511.084 97.8256L509.187 99.8953L496.563 86.6756C496.898 86.2119 497.35 85.5938 497.919 84.8119C498.5 84.0301 499.787 82.7013 501.793 80.7968C503.724 78.955 505.922 77.2605 508.351 75.7407C510.721 74.2695 513.827 72.9195 517.671 71.6847C521.516 70.4483 525.458 69.8316 529.47 69.8316C539.921 69.8316 548.446 73.1044 555.042 79.6331C561.641 86.171 564.945 94.3877 564.945 104.303V158.306H542.174V149.482H542.212ZM537.63 135.438C540.678 132.009 542.212 127.242 542.212 121.136V118.459L523.65 122.001C517.435 123.041 514.329 126.295 514.329 131.762C514.329 137.632 517.987 140.576 525.302 140.576C530.463 140.576 534.584 138.865 537.63 135.438ZM620.985 156.947C616.883 154.897 613.983 152.87 612.284 150.851L609.727 147.659V195.444H586.956V71.5498H609.727V82.1756C609.944 81.8362 610.287 81.3938 610.759 80.8786C611.231 80.3634 612.213 79.3953 613.728 77.9847C615.191 76.6128 616.834 75.3411 618.634 74.1862C620.395 73.065 622.675 72.0544 625.488 71.1589C628.234 70.2737 631.219 69.8174 634.238 69.821C644.964 69.821 654.276 74.1847 662.161 82.9074C670.056 91.6377 673.998 102.304 673.998 114.918C673.998 127.53 670.056 138.197 662.161 146.929C654.265 155.659 644.955 160.015 634.238 160.015C629.499 160.015 625.084 158.995 620.985 156.947ZM615.665 97.765C611.703 102.233 609.727 107.947 609.727 114.916C609.727 121.888 611.703 127.623 615.665 132.113C619.627 136.601 624.426 138.856 630.059 138.856C635.692 138.856 640.48 136.612 644.414 132.113C648.347 127.613 650.314 121.888 650.314 114.916C650.314 107.947 648.347 102.233 644.414 97.765C640.48 93.2953 635.692 91.071 630.059 91.071C624.426 91.071 619.627 93.3059 615.665 97.765ZM806.501 158.295H783.653V34.3922H806.501V158.295ZM851.228 157.43L819.136 71.5513H842.813L862.201 129.097L881.668 71.5498H905.265L872.347 163.565C864.816 184.818 854.109 195.454 840.256 195.454C837.778 195.454 835.33 195.227 832.913 194.765C830.493 194.301 828.704 193.838 827.554 193.385L825.902 192.777V171.609C828.153 172.762 830.965 173.338 834.318 173.338C841.191 173.338 845.979 170.085 848.673 163.577L851.228 157.43ZM743.744 95.4377C752.289 95.4377 759.211 88.1892 759.211 79.2407V71.5089H722.34V95.4483H743.744V95.4377ZM711.112 85.718V34.3938H685.707V158.297H711.112V85.718ZM722.348 34.3938V58.3316H755.807C765.168 58.3316 772.747 50.3816 772.747 40.5907V34.4028H722.348V34.3922V34.3938Z" fill="white"/>
<path d="M166.008 130.095L139.365 105.448L116.978 105.406V94.6606L139.363 94.6197L166.006 69.9712C167.672 70.6621 169.466 71.0212 171.257 71.0212C174.526 71.0212 177.795 69.8697 180.288 67.5636C185.269 62.9576 185.269 55.4682 180.288 50.8621C175.311 46.2561 167.213 46.2561 162.234 50.8621C158.427 54.3848 157.543 59.6 159.561 63.9151L135.555 86.1212L116.978 86.1545V76.5167H127.197L147.469 57.6985V22.8485C152.285 21.1576 155.724 16.8515 155.724 11.8121C155.724 5.29697 149.996 0 142.956 0C135.915 0 130.188 5.29849 130.188 11.8121C130.188 16.7924 133.547 21.0576 138.281 22.7909V54.1939L123.39 68.0212H116.742L91.9243 41.9152L67.109 68.0212H60.6241L45.7323 54.1939V22.7909C50.4581 21.0576 53.8261 16.7924 53.8261 11.8121C53.8261 5.29697 48.0985 0 41.058 0C34.0154 0 28.29 5.29849 28.29 11.8121C28.29 16.8591 31.7287 21.1576 36.5467 22.8485V57.7015L56.8164 76.5182H66.873V86.1545L48.4588 86.1227L24.463 63.9227C25.1728 62.4019 25.5313 60.8104 25.5248 59.2091C25.5248 56.0515 24.1927 53.0864 21.788 50.853C16.809 46.247 8.71314 46.247 3.7342 50.853C-1.24473 55.4591 -1.24473 62.9485 3.7342 67.5545C6.21831 69.8545 9.49613 71.0121 12.7654 71.0121C14.5566 71.0121 16.3478 70.6545 18.0146 69.9621L44.664 94.6106L66.888 94.653V105.398L44.664 105.439L18.021 130.088C13.3188 128.13 7.60195 128.921 3.73849 132.486C-1.24044 137.092 -1.24044 144.582 3.73849 149.188C6.2226 151.486 9.50042 152.644 12.7697 152.644C16.0389 152.644 19.3081 151.495 21.8008 149.188C24.2141 146.956 25.5377 143.991 25.5377 140.833C25.5435 139.232 25.185 137.64 24.4759 136.118L48.4739 113.92L66.888 113.886V123.482H56.8272L36.5574 142.3V177.152C31.7415 178.842 28.3007 183.148 28.3007 188.188C28.3007 194.702 34.0283 200 41.0687 200C48.1113 200 53.8368 194.702 53.8368 188.188C53.8368 183.208 50.4796 178.942 45.7431 177.209V145.806L60.637 131.979H67.2012L91.9436 158L116.688 131.977H123.405L138.299 145.805V177.208C133.571 178.941 130.203 183.206 130.203 188.186C130.203 194.7 135.93 199.998 142.973 199.998C150.013 199.998 155.741 194.7 155.741 188.186C155.741 183.139 152.3 178.841 147.482 177.15V142.315L127.217 123.5H116.995V113.905L135.572 113.938L159.576 136.145C157.551 140.459 158.435 145.674 162.252 149.197C164.74 151.497 168.016 152.655 171.283 152.655C174.554 152.655 177.821 151.505 180.314 149.197C185.295 144.591 185.295 137.103 180.314 132.497C176.427 128.932 170.708 128.139 166.006 130.097L166.008 130.095ZM168.717 56.8758C170.114 55.5848 172.392 55.5848 173.788 56.8758C175.183 58.1682 175.183 60.2742 173.788 61.5667C172.392 62.8576 170.114 62.8576 168.717 61.5667C167.323 60.2742 167.323 58.1682 168.717 56.8758ZM142.956 8.49697C144.929 8.49697 146.538 9.98788 146.538 11.8121C146.538 13.6364 144.929 15.1273 142.956 15.1273C140.982 15.1273 139.373 13.6364 139.373 11.8121C139.373 9.97879 140.982 8.49697 142.956 8.49697ZM41.0323 8.49697C43.0058 8.49697 44.6168 9.98788 44.6168 11.8121C44.6168 13.6364 43.0058 15.1273 41.0344 15.1273C39.0609 15.1273 37.4498 13.6364 37.4498 11.8121C37.4498 9.97879 39.0609 8.49697 41.0323 8.49697ZM15.2709 61.5667C13.8766 62.8576 11.5963 62.8576 10.2019 61.5667C8.80753 60.2742 8.80753 58.1682 10.2019 56.8758C10.9034 56.2273 11.8215 55.9106 12.7332 55.9106C13.6513 55.9106 14.5695 56.2348 15.2623 56.8758C15.9381 57.5015 16.3156 58.3348 16.3156 59.2167C16.3407 60.0592 15.9737 60.8857 15.2709 61.5667ZM15.2709 143.191C13.8766 144.482 11.5963 144.482 10.2019 143.191C8.80753 141.898 8.80753 139.792 10.2019 138.5C10.9034 137.852 11.8215 137.535 12.7332 137.535C13.6513 137.535 14.5695 137.859 15.2623 138.5C15.9381 139.126 16.3156 139.959 16.3156 140.841C16.3242 141.732 15.9467 142.567 15.2709 143.191ZM41.0344 191.529C39.0609 191.529 37.4498 190.038 37.4498 188.214C37.4498 186.389 39.0609 184.898 41.0323 184.898C43.0058 184.898 44.6168 186.389 44.6168 188.214C44.6168 190.038 43.0144 191.529 41.0344 191.529ZM142.956 191.529C140.982 191.529 139.373 190.038 139.373 188.214C139.373 186.389 140.982 184.898 142.956 184.898C144.929 184.898 146.538 186.389 146.538 188.214C146.538 190.038 144.938 191.529 142.956 191.529ZM76.0436 128.455V71.4788L91.9178 54.7773L107.792 71.4788V128.455L91.9178 145.156L76.0436 128.455ZM173.788 143.191C172.392 144.482 170.114 144.482 168.717 143.191C167.323 141.898 167.323 139.792 168.717 138.5C170.114 137.209 172.392 137.209 173.788 138.5C175.183 139.792 175.183 141.898 173.788 143.191Z" fill="#64B5F6"/>
</g>
<defs>
<clipPath id="clip0_2861_5">
<rect width="905.263" height="200" fill="white"/>
</clipPath>
</defs>
</svg>
