<svg width="895" height="114" viewBox="0 0 895 114" fill="none" xmlns="http://www.w3.org/2000/svg">
<path d="M170.624 89.408C165.461 89.408 161.003 88.4987 157.248 86.68C153.493 84.8613 150.531 82.3387 148.36 79.112C146.248 75.8267 145.016 72.0133 144.664 67.672L156.28 66.968C156.632 69.6667 157.395 71.9547 158.568 73.832C159.8 75.7093 161.413 77.1467 163.408 78.144C165.461 79.0827 167.925 79.552 170.8 79.552C173.264 79.552 175.347 79.2587 177.048 78.672C178.808 78.0267 180.128 77.1173 181.008 75.944C181.947 74.712 182.416 73.216 182.416 71.456C182.416 69.872 182.035 68.464 181.272 67.232C180.509 65.9413 179.043 64.7973 176.872 63.8C174.701 62.744 171.475 61.7173 167.192 60.72C162.029 59.5467 157.893 58.2267 154.784 56.76C151.675 55.2347 149.416 53.3573 148.008 51.128C146.6 48.84 145.896 45.9947 145.896 42.592C145.896 38.9547 146.805 35.7573 148.624 33C150.443 30.184 153.024 28.0133 156.368 26.488C159.712 24.904 163.731 24.112 168.424 24.112C173.411 24.112 177.635 25.0213 181.096 26.84C184.557 28.6 187.285 31.0347 189.28 34.144C191.275 37.2533 192.507 40.832 192.976 44.88L181.448 45.408C181.155 43.12 180.451 41.1253 179.336 39.424C178.28 37.7227 176.813 36.4027 174.936 35.464C173.117 34.4667 170.888 33.968 168.248 33.968C164.963 33.968 162.352 34.7307 160.416 36.256C158.539 37.7227 157.6 39.688 157.6 42.152C157.6 43.8533 157.981 45.2613 158.744 46.376C159.565 47.4907 161.003 48.4587 163.056 49.28C165.109 50.0427 167.984 50.864 171.68 51.744C177.253 52.9173 181.683 54.4133 184.968 56.232C188.253 58.0507 190.6 60.1627 192.008 62.568C193.416 64.9733 194.12 67.7307 194.12 70.84C194.12 74.6533 193.152 77.968 191.216 80.784C189.28 83.5413 186.552 85.6827 183.032 87.208C179.512 88.6747 175.376 89.408 170.624 89.408ZM226.131 89.056C221.437 89.056 217.36 88.0587 213.899 86.064C210.437 84.0107 207.739 81.136 205.803 77.44C203.925 73.744 202.987 69.432 202.987 64.504C202.987 59.576 203.925 55.2933 205.803 51.656C207.739 47.96 210.437 45.0853 213.899 43.032C217.36 40.9787 221.437 39.952 226.131 39.952C230.12 39.952 233.669 40.656 236.779 42.064C239.888 43.472 242.411 45.496 244.347 48.136C246.341 50.7173 247.573 53.8853 248.043 57.64L236.427 58.256C235.957 55.264 234.784 53.0053 232.907 51.48C231.088 49.896 228.829 49.104 226.131 49.104C222.493 49.104 219.677 50.4827 217.683 53.24C215.688 55.9387 214.691 59.6933 214.691 64.504C214.691 69.3733 215.688 73.1573 217.683 75.856C219.677 78.5547 222.493 79.904 226.131 79.904C228.888 79.904 231.176 79.112 232.995 77.528C234.872 75.944 236.016 73.48 236.427 70.136L248.043 70.664C247.573 74.4187 246.371 77.6747 244.435 80.432C242.499 83.1893 239.976 85.3307 236.867 86.856C233.757 88.3227 230.179 89.056 226.131 89.056ZM255.902 88V41.008H266.462L266.902 54.032L265.934 53.856C266.638 49.3387 267.958 46.0827 269.894 44.088C271.889 42.0347 274.588 41.008 277.99 41.008H282.302V50.688H277.902C275.497 50.688 273.502 51.04 271.918 51.744C270.334 52.448 269.132 53.5627 268.31 55.088C267.548 56.5547 267.166 58.4907 267.166 60.896V88H255.902ZM308.715 89.056C304.021 89.056 299.944 88.0587 296.483 86.064C293.021 84.0107 290.352 81.136 288.475 77.44C286.597 73.744 285.659 69.432 285.659 64.504C285.659 59.576 286.597 55.2933 288.475 51.656C290.352 47.96 292.992 45.0853 296.395 43.032C299.856 40.9787 303.875 39.952 308.451 39.952C312.909 39.952 316.811 40.9493 320.155 42.944C323.557 44.9387 326.168 47.8133 327.987 51.568C329.805 55.3227 330.715 59.84 330.715 65.12V67.672H297.363C297.597 71.7787 298.712 74.888 300.707 77C302.76 79.0533 305.459 80.08 308.803 80.08C311.325 80.08 313.408 79.5227 315.051 78.408C316.752 77.2347 317.925 75.6213 318.571 73.568L330.099 74.272C328.808 78.848 326.256 82.456 322.443 85.096C318.688 87.736 314.112 89.056 308.715 89.056ZM297.363 60.104H319.099C318.864 56.2907 317.779 53.4747 315.843 51.656C313.907 49.7787 311.443 48.84 308.451 48.84C305.459 48.84 302.965 49.808 300.971 51.744C299.035 53.68 297.832 56.4667 297.363 60.104ZM359.847 89.056C355.154 89.056 351.077 88.0587 347.615 86.064C344.154 84.0107 341.485 81.136 339.607 77.44C337.73 73.744 336.791 69.432 336.791 64.504C336.791 59.576 337.73 55.2933 339.607 51.656C341.485 47.96 344.125 45.0853 347.527 43.032C350.989 40.9787 355.007 39.952 359.583 39.952C364.042 39.952 367.943 40.9493 371.287 42.944C374.69 44.9387 377.301 47.8133 379.119 51.568C380.938 55.3227 381.847 59.84 381.847 65.12V67.672H348.495C348.73 71.7787 349.845 74.888 351.839 77C353.893 79.0533 356.591 80.08 359.935 80.08C362.458 80.08 364.541 79.5227 366.183 78.408C367.885 77.2347 369.058 75.6213 369.703 73.568L381.231 74.272C379.941 78.848 377.389 82.456 373.575 85.096C369.821 87.736 365.245 89.056 359.847 89.056ZM348.495 60.104H370.231C369.997 56.2907 368.911 53.4747 366.975 51.656C365.039 49.7787 362.575 48.84 359.583 48.84C356.591 48.84 354.098 49.808 352.103 51.744C350.167 53.68 348.965 56.4667 348.495 60.104ZM390.652 88V41.008H400.86L401.3 54.208L399.98 53.68C400.45 50.3947 401.418 47.7547 402.884 45.76C404.351 43.7653 406.14 42.2987 408.252 41.36C410.364 40.4213 412.682 39.952 415.204 39.952C418.666 39.952 421.57 40.7147 423.916 42.24C426.322 43.7653 428.14 45.8773 429.372 48.576C430.604 51.216 431.22 54.296 431.22 57.816V88H419.956V61.424C419.956 58.784 419.692 56.5547 419.164 54.736C418.636 52.9173 417.756 51.5387 416.524 50.6C415.351 49.6027 413.767 49.104 411.772 49.104C408.78 49.104 406.375 50.16 404.556 52.272C402.796 54.384 401.916 57.4347 401.916 61.424V88H390.652ZM461.483 89.056C456.848 89.056 452.947 88.3813 449.779 87.032C446.669 85.6827 444.264 83.8053 442.563 81.4C440.861 78.9947 439.893 76.2667 439.659 73.216L451.187 72.688C451.597 75.152 452.624 77.0587 454.267 78.408C455.909 79.7573 458.344 80.432 461.571 80.432C464.211 80.432 466.264 80.0213 467.731 79.2C469.256 78.32 470.019 76.9707 470.019 75.152C470.019 74.096 469.755 73.216 469.227 72.512C468.699 71.808 467.701 71.192 466.235 70.664C464.768 70.136 462.597 69.608 459.723 69.08C454.912 68.2587 451.128 67.2613 448.371 66.088C445.613 64.856 443.648 63.3307 442.475 61.512C441.36 59.6933 440.803 57.4347 440.803 54.736C440.803 50.336 442.475 46.7867 445.819 44.088C449.221 41.3307 454.179 39.952 460.691 39.952C464.915 39.952 468.464 40.656 471.339 42.064C474.213 43.4133 476.443 45.2907 478.027 47.696C479.669 50.0427 480.696 52.7413 481.107 55.792L469.755 56.32C469.461 54.736 468.933 53.3573 468.171 52.184C467.408 51.0107 466.381 50.1307 465.091 49.544C463.8 48.8987 462.275 48.576 460.515 48.576C457.875 48.576 455.88 49.104 454.531 50.16C453.181 51.216 452.507 52.624 452.507 54.384C452.507 55.616 452.8 56.6427 453.387 57.464C454.032 58.2853 455.059 58.96 456.467 59.488C457.875 59.9573 459.752 60.3973 462.099 60.808C467.027 61.5707 470.899 62.568 473.715 63.8C476.589 64.9733 478.613 66.4987 479.787 68.376C481.019 70.1947 481.635 72.3947 481.635 74.976C481.635 77.968 480.784 80.52 479.083 82.632C477.44 84.744 475.093 86.3573 472.043 87.472C469.051 88.528 465.531 89.056 461.483 89.056ZM490.426 88V25.52H501.69V51.744H500.282C500.751 49.0453 501.69 46.8453 503.098 45.144C504.506 43.384 506.236 42.0933 508.29 41.272C510.343 40.392 512.602 39.952 515.066 39.952C518.527 39.952 521.431 40.7147 523.778 42.24C526.183 43.7067 527.972 45.7893 529.146 48.488C530.378 51.1867 530.994 54.296 530.994 57.816V88H519.73V60.544C519.73 56.7307 519.084 53.8853 517.794 52.008C516.503 50.072 514.479 49.104 511.722 49.104C508.671 49.104 506.236 50.1013 504.418 52.096C502.599 54.0907 501.69 56.9947 501.69 60.808V88H490.426ZM562.576 89.056C557.941 89.056 553.864 88.0587 550.344 86.064C546.883 84.0107 544.184 81.136 542.248 77.44C540.371 73.744 539.432 69.432 539.432 64.504C539.432 59.5173 540.371 55.2053 542.248 51.568C544.184 47.872 546.883 45.0267 550.344 43.032C553.864 40.9787 557.941 39.952 562.576 39.952C567.211 39.952 571.259 40.9787 574.72 43.032C578.181 45.0267 580.851 47.872 582.728 51.568C584.664 55.2053 585.632 59.5173 585.632 64.504C585.632 69.432 584.664 73.744 582.728 77.44C580.851 81.136 578.181 84.0107 574.72 86.064C571.259 88.0587 567.211 89.056 562.576 89.056ZM562.576 79.904C566.213 79.904 569 78.5547 570.936 75.856C572.931 73.1573 573.928 69.3733 573.928 64.504C573.928 59.6933 572.931 55.9387 570.936 53.24C569 50.4827 566.213 49.104 562.576 49.104C558.939 49.104 556.123 50.4827 554.128 53.24C552.133 55.9387 551.136 59.6933 551.136 64.504C551.136 69.3733 552.133 73.1573 554.128 75.856C556.123 78.5547 558.939 79.904 562.576 79.904ZM611.523 88C606.83 88 603.369 86.9147 601.139 84.744C598.969 82.5733 597.883 79.1707 597.883 74.536V30.008H609.147V73.48C609.147 75.6507 609.617 77.176 610.555 78.056C611.494 78.8773 612.961 79.288 614.955 79.288H621.555V88H611.523ZM590.491 49.72V41.008H621.555V49.72H590.491ZM675.507 89.408C670.344 89.408 665.885 88.4987 662.131 86.68C658.376 84.8613 655.413 82.3387 653.243 79.112C651.131 75.8267 649.899 72.0133 649.547 67.672L661.163 66.968C661.515 69.6667 662.277 71.9547 663.451 73.832C664.683 75.7093 666.296 77.1467 668.291 78.144C670.344 79.0827 672.808 79.552 675.683 79.552C678.147 79.552 680.229 79.2587 681.931 78.672C683.691 78.0267 685.011 77.1173 685.891 75.944C686.829 74.712 687.299 73.216 687.299 71.456C687.299 69.872 686.917 68.464 686.155 67.232C685.392 65.9413 683.925 64.7973 681.755 63.8C679.584 62.744 676.357 61.7173 672.075 60.72C666.912 59.5467 662.776 58.2267 659.667 56.76C656.557 55.2347 654.299 53.3573 652.891 51.128C651.483 48.84 650.779 45.9947 650.779 42.592C650.779 38.9547 651.688 35.7573 653.507 33C655.325 30.184 657.907 28.0133 661.251 26.488C664.595 24.904 668.613 24.112 673.307 24.112C678.293 24.112 682.517 25.0213 685.979 26.84C689.44 28.6 692.168 31.0347 694.163 34.144C696.157 37.2533 697.389 40.832 697.859 44.88L686.331 45.408C686.037 43.12 685.333 41.1253 684.219 39.424C683.163 37.7227 681.696 36.4027 679.819 35.464C678 34.4667 675.771 33.968 673.131 33.968C669.845 33.968 667.235 34.7307 665.299 36.256C663.421 37.7227 662.483 39.688 662.483 42.152C662.483 43.8533 662.864 45.2613 663.627 46.376C664.448 47.4907 665.885 48.4587 667.939 49.28C669.992 50.0427 672.867 50.864 676.563 51.744C682.136 52.9173 686.565 54.4133 689.851 56.232C693.136 58.0507 695.483 60.1627 696.891 62.568C698.299 64.9733 699.003 67.7307 699.003 70.84C699.003 74.6533 698.035 77.968 696.099 80.784C694.163 83.5413 691.435 85.6827 687.915 87.208C684.395 88.6747 680.259 89.408 675.507 89.408ZM731.014 89.056C726.32 89.056 722.243 88.0587 718.782 86.064C715.32 84.0107 712.622 81.136 710.686 77.44C708.808 73.744 707.87 69.432 707.87 64.504C707.87 59.576 708.808 55.2933 710.686 51.656C712.622 47.96 715.32 45.0853 718.782 43.032C722.243 40.9787 726.32 39.952 731.014 39.952C735.003 39.952 738.552 40.656 741.662 42.064C744.771 43.472 747.294 45.496 749.23 48.136C751.224 50.7173 752.456 53.8853 752.925 57.64L741.31 58.256C740.84 55.264 739.667 53.0053 737.79 51.48C735.971 49.896 733.712 49.104 731.014 49.104C727.376 49.104 724.56 50.4827 722.566 53.24C720.571 55.9387 719.574 59.6933 719.574 64.504C719.574 69.3733 720.571 73.1573 722.566 75.856C724.56 78.5547 727.376 79.904 731.014 79.904C733.771 79.904 736.059 79.112 737.878 77.528C739.755 75.944 740.899 73.48 741.31 70.136L752.925 70.664C752.456 74.4187 751.254 77.6747 749.318 80.432C747.382 83.1893 744.859 85.3307 741.75 86.856C738.64 88.3227 735.062 89.056 731.014 89.056ZM781.201 89.056C776.566 89.056 772.489 88.0587 768.969 86.064C765.508 84.0107 762.809 81.136 760.873 77.44C758.996 73.744 758.057 69.432 758.057 64.504C758.057 59.5173 758.996 55.2053 760.873 51.568C762.809 47.872 765.508 45.0267 768.969 43.032C772.489 40.9787 776.566 39.952 781.201 39.952C785.836 39.952 789.884 40.9787 793.345 43.032C796.806 45.0267 799.476 47.872 801.353 51.568C803.289 55.2053 804.257 59.5173 804.257 64.504C804.257 69.432 803.289 73.744 801.353 77.44C799.476 81.136 796.806 84.0107 793.345 86.064C789.884 88.0587 785.836 89.056 781.201 89.056ZM781.201 79.904C784.838 79.904 787.625 78.5547 789.561 75.856C791.556 73.1573 792.553 69.3733 792.553 64.504C792.553 59.6933 791.556 55.9387 789.561 53.24C787.625 50.4827 784.838 49.104 781.201 49.104C777.564 49.104 774.748 50.4827 772.753 53.24C770.758 55.9387 769.761 59.6933 769.761 64.504C769.761 69.3733 770.758 73.1573 772.753 75.856C774.748 78.5547 777.564 79.904 781.201 79.904ZM828.437 89.056C823.685 89.056 819.901 87.5013 817.085 84.392C814.328 81.224 812.949 76.8533 812.949 71.28V41.008H824.213V68.464C824.213 72.3947 824.858 75.2987 826.149 77.176C827.498 78.9947 829.522 79.904 832.221 79.904C835.272 79.904 837.618 78.9067 839.261 76.912C840.962 74.8587 841.813 71.896 841.813 68.024V41.008H853.077V88H842.781L842.517 75.064L843.925 75.504C843.221 79.9627 841.549 83.336 838.909 85.624C836.269 87.912 832.778 89.056 828.437 89.056ZM882.226 88C877.533 88 874.072 86.9147 871.842 84.744C869.672 82.5733 868.586 79.1707 868.586 74.536V30.008H879.85V73.48C879.85 75.6507 880.32 77.176 881.258 78.056C882.197 78.8773 883.664 79.288 885.658 79.288H892.258V88H882.226ZM861.194 49.72V41.008H892.258V49.72H861.194Z" fill="#E5E5E5"/>
<g clip-path="url(#clip0_22_2)">
<path d="M4.89317 34.0597C12.576 16.703 28.5107 3.89864 47.8589 0.769714L66.9239 34.0597H4.89317Z" fill="#E5E5E5"/>
<path d="M50.8464 0.339832C52.8382 0.0554503 54.9723 0.0554504 56.9642 0.0554504C74.7484 0.0554504 90.5403 8.16508 100.927 20.828L81.8635 53.9763L50.8464 0.339832Z" fill="#E5E5E5"/>
<path d="M102.776 23.2474C109.748 32.78 113.874 44.3042 113.874 56.9653C113.874 64.0795 112.594 70.7659 110.175 77.0256H71.7612L102.776 23.2474Z" fill="#E5E5E5"/>
<path d="M109.037 79.8708C101.354 97.2275 85.4195 110.032 66.2131 113.161L47.0058 79.8708H109.037Z" fill="#E5E5E5"/>
<path d="M63.2259 113.592C61.0919 113.734 59.0999 113.876 56.9661 113.876C39.1818 113.876 23.3899 105.766 12.8611 92.961L32.0684 59.6683L63.2259 113.592Z" fill="#E5E5E5"/>
<path d="M3.75471 36.9052H42.027L11.0129 90.5414C4.1832 81.151 0.0572433 69.4846 0.0572433 56.9653C0.0572433 49.851 1.3381 43.1647 3.75637 36.9049L3.75471 36.9052Z" fill="#E5E5E5"/>
</g>
<defs>
<clipPath id="clip0_22_2">
<rect width="114" height="114" fill="white"/>
</clipPath>
</defs>
</svg>
