<svg width="516" height="125" viewBox="0 0 516 125" fill="none" xmlns="http://www.w3.org/2000/svg">
<path d="M34.2306 2.51367C16.6592 2.51367 2.41016 16.7583 2.41016 34.3293V75.1985H25.0793C27.3089 69.4414 32.8406 65.6407 39.0191 65.6246C47.2986 65.6246 54.0114 72.3362 54.0114 80.6157C54.0073 87.1939 49.7129 93 43.426 94.9327V116.288H77.4478V95.7719C70.7511 94.1312 66.055 88.1492 66.0229 81.2657C66.055 74.3826 70.7511 68.4005 77.4478 66.7595V51.9669C70.7511 50.3255 66.055 44.343 66.0229 37.4603C66.0229 29.1808 72.7356 22.468 81.0192 22.468C87.6556 22.4696 93.5007 26.8319 95.3888 33.1916H116.126C115.515 16.0806 101.463 2.52291 84.3454 2.51367H43.426V23.4354C49.721 25.3697 54.0114 31.1822 54.0114 37.7644C54.0114 46.0435 47.2986 52.7559 39.0191 52.7559C30.7476 52.7559 24.0268 46.0435 24.0268 37.7644C24.0429 30.9307 28.6788 24.9708 35.2992 23.2723V2.51367H34.2306ZM95.4812 41.3216C94.1394 46.2178 90.4154 50.1021 85.5827 51.6435V66.9925C91.7893 68.9742 95.9954 74.7445 96.0154 81.2657C95.9833 87.7631 91.7572 93.5001 85.5827 95.4746V116.167C102.616 115.506 116.11 101.527 116.15 84.4726V41.3216H95.4812ZM2.41016 83.3289V84.4726C2.41016 102.044 16.6592 116.288 34.2306 116.288H35.2992V95.1086C29.655 93.6496 25.3726 89.0563 24.308 83.3289H2.41016Z" fill="url(#paint0_linear_980_57)"/>
<path d="M496.907 25.6465V34.4844H513.538V16.8086H496.907V25.6465ZM162.502 19.7492C162.289 19.7653 161.51 19.8135 160.807 19.8617C155.31 20.2313 150.883 21.3159 147.869 23.0112C143.251 25.6465 140.946 29.9208 140.316 37.0554C140.091 39.5863 140.143 44.9533 140.416 47.9019C141.191 56.8523 144.235 60.524 153.201 63.4486C155.146 64.0672 157.632 64.718 161.108 65.4973C162.715 65.8589 164.896 66.3731 165.953 66.6382C171.71 68.0844 173.594 69.2494 174.197 71.7722C174.611 73.5318 174.611 77.7418 174.209 79.638C173.466 82.924 171.296 84.1212 165.7 84.2819C158.323 84.5068 151.486 83.5346 143.251 81.1082C142.432 80.8672 141.721 80.6985 141.645 80.7306C141.621 80.819 138.738 94.0196 138.814 94.0678C138.914 94.1723 141.544 95.2167 142.789 95.6345C147.568 97.2816 152.683 98.31 158.624 98.8483C160.192 98.9849 166.033 99.0331 168.07 98.9286C178.764 98.3502 184.915 96.0041 188.374 91.1513C191.113 87.2948 192.122 81.7349 191.784 72.2463C191.583 67.2006 191.182 64.8465 190.037 62.4844C187.827 57.8887 182.905 55.2454 171.12 52.353C163.695 50.5211 162.703 50.256 161.237 49.6695C159.174 48.8419 158.207 47.9019 157.793 46.2548C157.492 45.0898 157.367 41.7636 157.568 39.9076C157.869 36.7019 159.174 35.3842 162.538 34.8459C165.25 34.4121 171.734 34.5567 177.346 35.1753C179.528 35.4164 183.351 35.9547 186.265 36.4367C187.57 36.6537 188.354 36.7501 188.374 36.6938C188.406 36.5412 190.081 22.2479 190.081 22.2238C189.997 22.1595 186.799 21.5409 184.959 21.2356C181.062 20.5848 177.648 20.1831 173.193 19.8537C172.024 19.7733 163.394 19.6849 162.502 19.7492ZM379.323 20.9222C379.242 21.1552 355.902 97.7958 355.902 97.836C355.902 97.8601 359.96 97.8681 364.917 97.8601L373.94 97.836L375.964 90.5246C377.073 86.4994 378.005 83.1329 378.037 83.0285L378.077 82.8517L390.997 82.8678L403.908 82.8919L405.957 90.2836C407.09 94.349 408.03 97.7235 408.046 97.7797C408.078 97.8601 409.926 97.8761 417.093 97.8601L426.091 97.836L414.313 59.351L402.526 20.866L390.94 20.8419C381.717 20.8258 379.347 20.8419 379.323 20.9222ZM395.335 52.2566C397.73 61.0623 399.69 68.2933 399.69 68.3254C399.69 68.3656 395.713 68.3897 390.844 68.3897C383.509 68.3897 382.006 68.3737 382.038 68.2853C382.062 68.221 384.063 60.99 386.481 52.2164C388.9 43.4347 390.908 36.252 390.932 36.252C390.957 36.252 392.941 43.4588 395.335 52.2566ZM223.66 40.3977C222.271 40.47 220.563 40.6147 219.76 40.7191C209.342 42.1251 203.231 47.6207 201.571 57.1174C201.158 59.5036 201.158 59.6001 201.105 68.5906C201.069 77.4365 201.105 78.7702 201.423 80.9958C201.985 85.0773 203.431 88.6847 205.542 91.3281C208.538 95.0721 213.17 97.5066 219.109 98.4707C221.853 98.9206 223.724 99.0331 227.313 98.9768C231.603 98.9045 235.223 98.5028 239.644 97.5949C242.793 96.9522 247.437 95.6185 247.437 95.3694C247.437 95.273 245.115 83.2695 245.059 83.0847C245.027 82.9642 244.987 82.9642 244.641 83.0606C241.363 84.0569 235.763 84.9808 231.226 85.2701C229.245 85.3986 225.017 85.3263 223.909 85.1496C220.628 84.6113 219.057 83.5105 218.277 81.1565C217.94 80.1602 217.799 79.1318 217.739 77.2035L217.699 75.5404H248.08V69.611C248.08 63.4566 248.008 60.8213 247.791 58.885C246.811 49.9908 242.93 44.5194 235.767 41.9484C233.963 41.3056 231.467 40.7753 229.121 40.5584C227.871 40.4379 224.652 40.3415 223.66 40.3977ZM226.793 53.526C228.528 53.7429 229.647 54.217 230.569 55.1329C231.881 56.4425 232.276 57.8084 232.288 61.1185L232.292 63.0468H217.763L217.727 61.8417C217.675 58.5315 218.241 56.6434 219.72 55.2775C220.611 54.4419 221.74 53.9036 223.11 53.6546C224.275 53.4376 225.682 53.3894 226.793 53.526ZM330.955 40.4379C327.798 40.6548 324.126 41.6109 320.454 43.1696C319.024 43.7802 316.887 44.8568 315.786 45.5157L314.919 46.0379L314.822 45.7888C314.766 45.6442 314.372 44.6399 313.954 43.5472L313.199 41.5547H300.143V82.2491C300.143 119.585 300.151 122.943 300.272 122.943C300.344 122.943 304.048 122.441 308.499 121.822C312.958 121.199 316.638 120.693 316.686 120.693C316.75 120.693 316.775 117.287 316.775 109.06V97.4182L317.441 97.5628C320.302 98.1975 324.03 98.6876 327.766 98.9286C329.71 99.0492 333.599 98.9849 334.892 98.8081C340.348 98.0449 344.156 95.8756 346.695 92.0913C347.305 91.1835 348.261 89.223 348.655 88.0741C349.266 86.2905 349.659 84.3702 349.933 81.9278C350.037 80.9958 350.061 79.1237 350.093 71.0009C350.134 61.0463 350.093 58.8368 349.836 56.7398C349.033 50.1355 346.494 45.5157 342.228 42.8723C339.914 41.4342 337.182 40.6468 333.767 40.4299C332.442 40.3415 332.241 40.3415 330.955 40.4379ZM328.264 54.8919C329.863 55.0445 330.867 55.4382 331.727 56.2417C332.586 57.0451 333.06 58.0092 333.285 59.4152C333.462 60.516 333.462 78.8747 333.285 79.9031C332.9 82.0965 331.847 83.4784 330.039 84.1372C329.075 84.4908 328.312 84.5711 326.335 84.5148C324.528 84.4666 322.728 84.2819 320.631 83.9444C319.37 83.7355 317.65 83.3981 317.08 83.2535L316.775 83.1651V59.2465L317.12 58.9493C317.65 58.4913 319.225 57.4548 320.157 56.9567C322.583 55.6551 324.793 54.9963 327.259 54.8195C327.348 54.8195 327.798 54.8517 328.264 54.8919ZM466.014 40.3977C461.274 40.6789 455.216 42.6715 450.452 45.5157L449.592 46.0299L449.198 45.0175C448.981 44.4632 448.596 43.4508 448.339 42.7759L447.864 41.5547H434.8V82.2491C434.8 119.85 434.809 122.943 434.929 122.943C435.001 122.943 438.713 122.441 443.172 121.822C447.631 121.199 451.311 120.693 451.351 120.693C451.4 120.693 451.432 116.412 451.432 109.06V97.4262L452.902 97.7235C455.329 98.2136 457.442 98.5028 460.752 98.8162C462.64 98.9929 467.894 99.017 469.188 98.8563C471.679 98.543 473.968 97.8922 475.848 96.9361C477.391 96.1648 478.331 95.4819 479.552 94.2606C481.898 91.9146 483.329 89.0302 484.132 85.021C484.727 82.0483 484.775 80.8994 484.775 69.6752C484.775 58.5154 484.727 57.3986 484.132 54.4098C482.501 46.2147 477.656 41.4904 469.911 40.5584C468.867 40.4379 466.85 40.3495 466.014 40.3977ZM463.001 54.8919C464.014 54.9883 464.592 55.149 465.388 55.5346C466.617 56.1372 467.412 57.2058 467.846 58.8287L468.023 59.5117V79.8388L467.846 80.5137C467.348 82.3697 466.223 83.6471 464.624 84.1694C463.572 84.5148 463.042 84.563 461.073 84.5148C459.289 84.4666 458.173 84.3622 455.971 84.0489C454.871 83.8882 452.332 83.4061 451.737 83.2454L451.432 83.1651V59.2305L451.898 58.8689C454.525 56.7719 458.229 55.1731 461.097 54.8999C462.029 54.8035 462.15 54.8035 463.001 54.8919ZM289.297 40.6388C285.673 41.5868 280.001 44.0614 276.241 46.3352C275.614 46.7208 275.261 46.8895 275.228 46.8333C275.204 46.7771 274.931 45.5719 274.634 44.1418L274.088 41.5547H260.212V97.8761H276.843V63.5048L277.711 62.9424C280.579 61.0864 285.561 58.6279 290.438 56.6594C291.112 56.3863 291.691 56.1372 291.723 56.1131C291.755 56.081 291.474 52.6021 291.096 48.384C290.727 44.1659 290.422 40.6468 290.422 40.5665C290.422 40.3817 290.229 40.3897 289.297 40.6388ZM496.907 69.7154V97.8761H513.538V41.5547H496.907V69.7154Z" fill="#29363D"/>
<defs>
<linearGradient id="paint0_linear_980_57" x1="2.35451" y1="116.352" x2="116.231" y2="2.49015" gradientUnits="userSpaceOnUse">
<stop stop-color="#377FEA"/>
<stop offset="1" stop-color="#8D45F0" stop-opacity="0.984314"/>
</linearGradient>
</defs>
</svg>
