<svg width="1174" height="223" viewBox="0 0 1174 223" fill="none" xmlns="http://www.w3.org/2000/svg">
<g clip-path="url(#clip0_6632_102)">
<path d="M1114 6H60C30.1766 6 6 30.1766 6 60V163C6 192.823 30.1766 217 60 217H1114C1143.82 217 1168 192.823 1168 163V60C1168 30.1766 1143.82 6 1114 6Z" fill="#7450CA" stroke="#7450CA" stroke-width="12"/>
<mask id="mask0_6632_102" style="mask-type:luminance" maskUnits="userSpaceOnUse" x="39" y="27" width="170" height="169">
<path d="M40.3477 27.8066H207.736V195.195H40.3477V27.8066Z" fill="white" stroke="white"/>
</mask>
<g mask="url(#mask0_6632_102)">
<path d="M67.9141 118.517C80.4245 120.003 92.071 125.656 100.98 134.564C109.888 143.473 115.54 155.119 117.027 167.63C123.229 164.054 128.416 158.956 132.099 152.818C135.782 146.68 137.839 139.703 138.076 132.549C149.857 128.404 160.144 120.86 167.637 110.869C175.13 100.878 179.493 88.8896 180.173 76.4196C180.173 70.8372 177.955 65.4834 174.008 61.536C170.06 57.5887 164.707 55.3711 159.124 55.3711C146.654 56.051 134.666 60.4134 124.675 67.9065C114.684 75.3997 107.139 85.6871 102.995 97.468C95.8402 97.7043 88.864 99.7612 82.7256 103.444C76.5872 107.127 71.4894 112.315 67.9141 118.517Z" stroke="white" stroke-width="12" stroke-linecap="round" stroke-linejoin="round"/>
<path d="M88.9599 125.533C81.6577 129.656 75.753 135.865 72.0029 143.365C68.2528 150.866 66.8281 159.315 67.9114 167.63C76.2267 168.713 84.676 167.289 92.1762 163.539C99.6765 159.789 105.886 153.884 110.008 146.582" stroke="white" stroke-width="12" stroke-linecap="round" stroke-linejoin="round"/>
<path d="M138.074 90.4517C138.074 92.3125 138.813 94.0971 140.129 95.4129C141.445 96.7287 143.23 97.4679 145.09 97.4679C146.951 97.4679 148.736 96.7287 150.052 95.4129C151.367 94.0971 152.107 92.3125 152.107 90.4517C152.107 88.5909 151.367 86.8063 150.052 85.4905C148.736 84.1747 146.951 83.4355 145.09 83.4355C143.23 83.4355 141.445 84.1747 140.129 85.4905C138.813 86.8063 138.074 88.5909 138.074 90.4517Z" stroke="white" stroke-width="12" stroke-linecap="round" stroke-linejoin="round"/>
</g>
<path d="M323.35 82.8502C321.617 80.9435 319.45 79.2102 316.85 77.6502C314.337 76.0902 310.48 75.3102 305.28 75.3102C300.167 75.3102 296.44 76.1769 294.1 77.9102C291.76 79.5569 290.59 81.5069 290.59 83.7602C290.59 84.7135 290.85 85.7102 291.37 86.7502C291.89 87.7035 292.8 88.6569 294.1 89.6102C295.487 90.5635 297.437 91.3435 299.95 91.9502L321.01 97.6702C329.157 99.8369 335.093 103.39 338.82 108.33C342.547 113.27 344.41 118.99 344.41 125.49C344.41 131.73 342.763 137.19 339.47 141.87C336.263 146.463 331.67 150.017 325.69 152.53C319.71 155.043 312.56 156.3 304.24 156.3C298.087 156.3 292.28 155.607 286.82 154.22C281.447 152.833 276.68 150.883 272.52 148.37C268.447 145.77 265.37 142.737 263.29 139.27C262.77 138.403 262.553 137.71 262.64 137.19C262.727 136.583 263.203 135.933 264.07 135.24L275.77 127.18C276.897 126.4 277.807 126.097 278.5 126.27C279.28 126.357 279.887 126.703 280.32 127.31C282.313 129.91 284.307 132.033 286.3 133.68C288.293 135.24 290.547 136.41 293.06 137.19C295.66 137.883 298.737 138.23 302.29 138.23C307.49 138.23 311.65 137.493 314.77 136.02C317.89 134.46 319.45 132.163 319.45 129.13C319.45 127.917 319.103 126.79 318.41 125.75C317.803 124.623 316.807 123.627 315.42 122.76C314.12 121.893 312.3 121.157 309.96 120.55L290.2 115.35C285.087 113.963 280.71 111.883 277.07 109.11C273.43 106.337 270.613 103.087 268.62 99.3602C266.713 95.6335 265.76 91.6035 265.76 87.2702C265.76 81.7235 267.32 76.6969 270.44 72.1902C273.647 67.5969 278.153 63.9569 283.96 61.2702C289.767 58.5835 296.613 57.2402 304.5 57.2402C309.527 57.2402 314.293 57.8035 318.8 58.9302C323.393 60.0569 327.467 61.6602 331.02 63.7402C334.66 65.8202 337.52 68.2469 339.6 71.0202C339.947 71.6269 340.207 72.2335 340.38 72.8402C340.64 73.4469 340.38 74.0535 339.6 74.6602L326.86 83.8902C326.34 84.3235 325.82 84.4969 325.3 84.4102C324.867 84.2369 324.217 83.7169 323.35 82.8502ZM358.116 155C356.123 155 355.126 154.003 355.126 152.01V61.2702C355.126 59.4502 355.863 58.5402 357.336 58.5402H375.666C377.139 58.5402 377.876 59.3635 377.876 61.0102V93.9002C377.876 94.4202 378.006 94.7235 378.266 94.8102C378.526 94.8969 378.916 94.7669 379.436 94.4202C382.036 91.9935 384.506 90.0869 386.846 88.7002C389.186 87.3135 391.483 86.3169 393.736 85.7102C396.076 85.1035 398.459 84.8002 400.886 84.8002C407.386 84.8002 412.413 86.6635 415.966 90.3902C419.519 94.0302 421.296 99.2302 421.296 105.99V151.49C421.296 153.83 420.083 155 417.656 155H400.886C399.846 155 399.109 154.783 398.676 154.35C398.329 153.917 398.156 153.137 398.156 152.01V108.85C398.156 106.423 397.419 104.56 395.946 103.26C394.559 101.96 392.609 101.31 390.096 101.31C388.536 101.31 387.063 101.57 385.676 102.09C384.289 102.61 382.989 103.433 381.776 104.56C380.649 105.6 379.479 106.943 378.266 108.59V151.62C378.266 153.873 376.966 155 374.366 155H358.116ZM456.212 151.49C456.212 152.79 455.909 153.7 455.302 154.22C454.695 154.74 453.699 155 452.312 155H436.192C434.979 155 434.155 154.783 433.722 154.35C433.289 153.83 433.072 153.05 433.072 152.01V88.8302C433.072 87.0102 433.852 86.1002 435.412 86.1002H454.002C455.475 86.1002 456.212 86.9235 456.212 88.5702V151.49ZM456.342 75.5702C456.342 77.9102 454.999 79.0802 452.312 79.0802H436.062C434.849 79.0802 434.025 78.8202 433.592 78.3002C433.159 77.7802 432.942 77.0002 432.942 75.9602V61.4002C432.942 59.4935 433.722 58.5402 435.282 58.5402H454.002C455.562 58.5402 456.342 59.4069 456.342 61.1402V75.5702ZM488.896 86.1002C490.889 86.1002 491.886 87.0535 491.886 88.9602V92.2102C491.886 92.8169 492.103 93.1202 492.536 93.1202C492.969 93.1202 493.403 92.9469 493.836 92.6002C495.396 91.1269 497.043 89.8269 498.776 88.7002C500.509 87.4869 502.459 86.5335 504.626 85.8402C506.879 85.1469 509.479 84.8002 512.426 84.8002C517.366 84.8002 521.786 86.1002 525.686 88.7002C529.586 91.2135 532.706 95.0702 535.046 100.27C537.386 105.47 538.556 112.1 538.556 120.16C538.556 128.74 537.343 135.717 534.916 141.09C532.489 146.377 529.239 150.233 525.166 152.66C521.093 155.087 516.543 156.3 511.516 156.3C508.309 156.3 505.319 155.823 502.546 154.87C499.859 153.83 497.173 152.097 494.486 149.67C493.446 148.803 492.753 148.413 492.406 148.5C492.059 148.5 491.886 149.107 491.886 150.32V173.98C491.886 175.627 491.149 176.45 489.676 176.45H470.956C469.483 176.45 468.746 175.583 468.746 173.85V89.2202C468.746 88.1802 468.963 87.4002 469.396 86.8802C469.829 86.3602 470.696 86.1002 471.996 86.1002H488.896ZM491.886 136.15C493.273 137.97 494.789 139.4 496.436 140.44C498.169 141.48 500.206 142 502.546 142C505.146 142 507.356 141.307 509.176 139.92C511.083 138.533 512.556 136.237 513.596 133.03C514.636 129.737 515.156 125.23 515.156 119.51C515.156 114.223 514.636 110.107 513.596 107.16C512.643 104.213 511.213 102.133 509.306 100.92C507.486 99.7069 505.276 99.1002 502.676 99.1002C500.683 99.1002 498.863 99.5335 497.216 100.4C495.569 101.18 494.269 102.22 493.316 103.52C492.363 104.82 491.886 106.25 491.886 107.81V136.15ZM568.622 86.1002C570.616 86.1002 571.612 87.0535 571.612 88.9602V92.2102C571.612 92.8169 571.829 93.1202 572.262 93.1202C572.696 93.1202 573.129 92.9469 573.562 92.6002C575.122 91.1269 576.769 89.8269 578.502 88.7002C580.236 87.4869 582.186 86.5335 584.352 85.8402C586.606 85.1469 589.206 84.8002 592.152 84.8002C597.092 84.8002 601.512 86.1002 605.412 88.7002C609.312 91.2135 612.432 95.0702 614.772 100.27C617.112 105.47 618.282 112.1 618.282 120.16C618.282 128.74 617.069 135.717 614.642 141.09C612.216 146.377 608.966 150.233 604.892 152.66C600.819 155.087 596.269 156.3 591.242 156.3C588.036 156.3 585.046 155.823 582.272 154.87C579.586 153.83 576.899 152.097 574.212 149.67C573.172 148.803 572.479 148.413 572.132 148.5C571.786 148.5 571.612 149.107 571.612 150.32V173.98C571.612 175.627 570.876 176.45 569.402 176.45H550.682C549.209 176.45 548.472 175.583 548.472 173.85V89.2202C548.472 88.1802 548.689 87.4002 549.122 86.8802C549.556 86.3602 550.422 86.1002 551.722 86.1002H568.622ZM571.612 136.15C572.999 137.97 574.516 139.4 576.162 140.44C577.896 141.48 579.932 142 582.272 142C584.872 142 587.082 141.307 588.902 139.92C590.809 138.533 592.282 136.237 593.322 133.03C594.362 129.737 594.882 125.23 594.882 119.51C594.882 114.223 594.362 110.107 593.322 107.16C592.369 104.213 590.939 102.133 589.032 100.92C587.212 99.7069 585.002 99.1002 582.402 99.1002C580.409 99.1002 578.589 99.5335 576.942 100.4C575.296 101.18 573.996 102.22 573.042 103.52C572.089 104.82 571.612 106.25 571.612 107.81V136.15ZM649.129 126.92C649.129 129.867 649.779 132.38 651.079 134.46C652.466 136.54 654.286 138.143 656.539 139.27C658.879 140.31 661.479 140.83 664.339 140.83C666.939 140.83 669.452 140.267 671.879 139.14C674.306 137.927 676.906 135.847 679.679 132.9C680.026 132.553 680.329 132.38 680.589 132.38C680.849 132.293 681.369 132.38 682.149 132.64L692.809 137.06C694.196 137.667 694.369 138.62 693.329 139.92C690.296 144.167 687.219 147.503 684.099 149.93C681.066 152.27 677.686 153.917 673.959 154.87C670.232 155.823 665.986 156.3 661.219 156.3C654.459 156.3 648.349 154.827 642.889 151.88C637.429 148.933 633.139 144.86 630.019 139.66C626.899 134.46 625.339 128.437 625.339 121.59C625.339 114.223 626.942 107.767 630.149 102.22C633.442 96.6735 637.776 92.3835 643.149 89.3502C648.609 86.3169 654.502 84.8002 660.829 84.8002C667.589 84.8002 673.526 86.2735 678.639 89.2202C683.839 92.0802 687.912 96.2402 690.859 101.7C693.892 107.16 695.409 113.79 695.409 121.59C695.409 122.63 695.279 123.41 695.019 123.93C694.846 124.45 694.239 124.753 693.199 124.84H650.949C650.429 124.84 649.996 125.013 649.649 125.36C649.302 125.707 649.129 126.227 649.129 126.92ZM670.709 112.62C671.576 112.62 672.139 112.533 672.399 112.36C672.746 112.1 672.919 111.58 672.919 110.8C672.919 109.153 672.529 107.42 671.749 105.6C670.969 103.693 669.756 102.047 668.109 100.66C666.462 99.2735 664.382 98.5802 661.869 98.5802C659.529 98.5802 657.406 99.1435 655.499 100.27C653.592 101.31 652.119 102.87 651.079 104.95C650.039 107.03 649.519 109.543 649.519 112.49L670.709 112.62ZM752.075 155C751.208 155 750.471 154.827 749.865 154.48C749.345 154.047 749.085 153.31 749.085 152.27V149.15C749.085 148.543 748.868 148.197 748.435 148.11C748.001 148.023 747.568 148.197 747.135 148.63C745.661 150.103 744.015 151.447 742.195 152.66C740.461 153.787 738.468 154.653 736.215 155.26C733.961 155.953 731.405 156.3 728.545 156.3C723.345 156.3 718.751 155 714.765 152.4C710.778 149.713 707.658 145.77 705.405 140.57C703.151 135.283 702.025 128.74 702.025 120.94C702.025 113.66 703.281 107.333 705.795 101.96C708.395 96.5002 711.818 92.2969 716.065 89.3502C720.311 86.3169 724.905 84.8002 729.845 84.8002C733.051 84.8002 735.955 85.3202 738.555 86.3602C741.155 87.4002 743.755 89.1335 746.355 91.5602C747.135 92.0802 747.741 92.2969 748.175 92.2102C748.608 92.1235 748.825 91.5602 748.825 90.5202V61.0102C748.825 59.3635 749.518 58.5402 750.905 58.5402H769.495C771.055 58.5402 771.835 59.4502 771.835 61.2702V152.01C771.835 153.05 771.618 153.83 771.185 154.35C770.751 154.783 769.885 155 768.585 155H752.075ZM748.695 104.95C747.048 103.13 745.401 101.743 743.755 100.79C742.195 99.8369 740.245 99.3602 737.905 99.3602C735.565 99.3602 733.398 100.053 731.405 101.44C729.498 102.827 728.025 105.08 726.985 108.2C725.945 111.32 725.425 115.523 725.425 120.81C725.425 126.01 725.901 130.213 726.855 133.42C727.895 136.54 729.368 138.793 731.275 140.18C733.181 141.48 735.348 142.13 737.775 142.13C739.855 142.13 741.675 141.697 743.235 140.83C744.881 139.877 746.181 138.663 747.135 137.19C748.175 135.63 748.695 133.983 748.695 132.25V104.95ZM807.361 151.49C807.361 153.83 806.061 155 803.461 155H786.041C783.875 155 782.791 154.003 782.791 152.01V133.68C782.791 131.947 783.528 131.08 785.001 131.08H805.281C806.668 131.08 807.361 131.86 807.361 133.42V151.49ZM848.59 84.8002C854.483 84.8002 859.51 85.8835 863.67 88.0502C867.83 90.1302 871.166 92.7735 873.68 95.9802C876.193 99.1869 877.883 102.437 878.75 105.73C879.356 107.723 878.663 108.763 876.67 108.85L860.94 109.89C859.813 110.063 859.12 109.543 858.86 108.33C858.34 106.943 857.733 105.6 857.04 104.3C856.433 102.913 855.48 101.787 854.18 100.92C852.966 100.053 851.32 99.6202 849.24 99.6202C846.726 99.6202 844.516 100.357 842.61 101.83C840.703 103.303 839.23 105.6 838.19 108.72C837.15 111.753 836.63 115.697 836.63 120.55C836.63 125.49 837.193 129.563 838.32 132.77C839.446 135.89 841.05 138.187 843.13 139.66C845.21 141.047 847.636 141.74 850.41 141.74C854.05 141.74 856.823 140.743 858.73 138.75C860.723 136.757 862.63 134.2 864.45 131.08C864.623 130.733 864.883 130.517 865.23 130.43C865.576 130.257 866.14 130.257 866.92 130.43L877.84 132.77C878.966 133.03 879.313 133.94 878.88 135.5C878.36 137.233 877.406 139.313 876.02 141.74C874.633 144.08 872.726 146.377 870.3 148.63C867.96 150.797 864.97 152.617 861.33 154.09C857.776 155.563 853.53 156.3 848.59 156.3C841.743 156.3 835.633 154.827 830.26 151.88C824.973 148.847 820.813 144.687 817.78 139.4C814.746 134.027 813.23 127.83 813.23 120.81C813.23 113.617 814.746 107.333 817.78 101.96C820.9 96.5869 825.103 92.3835 830.39 89.3502C835.763 86.3169 841.83 84.8002 848.59 84.8002ZM911.215 151.49C911.215 152.79 910.868 153.7 910.175 154.22C909.568 154.74 908.615 155 907.315 155H891.065C888.898 155 887.815 154.003 887.815 152.01L888.335 61.2702C888.335 59.4502 889.115 58.5402 890.675 58.5402H909.005C910.478 58.5402 911.215 59.3635 911.215 61.0102V151.49ZM953.906 139.92C956.159 139.92 958.283 139.313 960.276 138.1C962.356 136.887 964.176 135.327 965.736 133.42V89.4802C965.736 87.2269 967.036 86.1002 969.636 86.1002H986.016C988.096 86.1002 989.136 87.1402 989.136 89.2202L988.616 152.4C988.616 154.133 987.879 155 986.406 155H968.336C966.863 155 966.126 154.22 966.126 152.66V146.55C966.126 146.03 965.996 145.727 965.736 145.64C965.476 145.467 965.129 145.597 964.696 146.03C961.403 149.583 957.936 152.183 954.296 153.83C950.743 155.477 946.886 156.3 942.726 156.3C938.913 156.3 935.533 155.477 932.586 153.83C929.639 152.097 927.299 149.627 925.566 146.42C923.833 143.213 922.966 139.4 922.966 134.98V89.6102C922.966 87.2702 924.179 86.1002 926.606 86.1002H943.376C945.196 86.1002 946.106 87.1402 946.106 89.2202V132.12C946.106 134.547 946.799 136.453 948.186 137.84C949.659 139.227 951.566 139.92 953.906 139.92ZM1004.56 155C1003.26 155 1002.4 154.783 1001.96 154.35C1001.53 153.83 1001.31 153.05 1001.31 152.01V61.2702C1001.31 59.4502 1002.09 58.5402 1003.65 58.5402H1022.24C1023.72 58.5402 1024.45 59.4069 1024.45 61.1402V90.7802C1024.45 91.8202 1024.67 92.3835 1025.1 92.4702C1025.62 92.5569 1026.19 92.3402 1026.79 91.8202C1028.44 90.2602 1030.13 89.0035 1031.86 88.0502C1033.68 87.0102 1035.59 86.2302 1037.58 85.7102C1039.66 85.1035 1041.83 84.8002 1044.08 84.8002C1049.89 84.8002 1054.79 86.2735 1058.77 89.2202C1062.76 92.0802 1065.79 96.1535 1067.87 101.44C1070.04 106.727 1071.12 112.923 1071.12 120.03C1071.12 131.037 1068.57 139.833 1063.45 146.42C1058.34 153.007 1051.06 156.3 1041.61 156.3C1038.67 156.3 1035.89 155.823 1033.29 154.87C1030.78 153.917 1028.48 152.617 1026.4 150.97C1024.41 149.323 1022.63 147.547 1021.07 145.64C1020.73 145.207 1020.42 145.033 1020.16 145.12C1019.9 145.207 1019.69 145.51 1019.51 146.03L1017.69 152.14C1017.17 154.047 1016.09 155 1014.44 155H1004.56ZM1024.45 131.08C1024.45 133.42 1024.93 135.457 1025.88 137.19C1026.84 138.923 1028.14 140.267 1029.78 141.22C1031.52 142.087 1033.38 142.52 1035.37 142.52C1037.97 142.52 1040.18 141.827 1042 140.44C1043.82 138.967 1045.21 136.627 1046.16 133.42C1047.2 130.127 1047.72 125.837 1047.72 120.55C1047.72 112.75 1046.68 107.247 1044.6 104.04C1042.61 100.747 1039.71 99.1002 1035.89 99.1002C1033.55 99.1002 1031.43 99.6635 1029.52 100.79C1027.62 101.917 1025.93 103.39 1024.45 105.21V131.08Z" fill="white"/>
</g>
<defs>
<clipPath id="clip0_6632_102">
<rect width="1174" height="223" fill="white"/>
</clipPath>
</defs>
</svg>
