<svg width="2749" height="572" viewBox="0 0 2749 572" fill="none" xmlns="http://www.w3.org/2000/svg">
<path d="M944.353 184.548V236.562C933.381 229.519 921.935 224.236 910.015 220.714C898.231 217.057 886.379 215.228 874.459 215.228C861.184 215.228 851.16 217.192 844.388 221.12C837.615 224.913 834.229 230.602 834.229 238.188C834.229 249.024 848.722 257.829 877.71 264.601L879.945 265.211L897.012 269.275C918.685 274.422 934.533 282.752 944.556 294.266C954.716 305.644 959.795 321.086 959.795 340.591C959.795 364.025 952.074 381.634 936.632 393.419C921.326 405.068 898.231 410.892 867.347 410.892C853.666 410.892 839.647 409.673 825.289 407.235C810.93 404.932 796.369 401.41 781.605 396.67V344.655C794.744 352.105 808.086 357.794 821.631 361.722C835.312 365.65 848.519 367.615 861.252 367.615C875.204 367.615 885.769 365.583 892.948 361.519C900.127 357.455 903.717 351.563 903.717 343.842C903.717 336.257 901.143 330.432 895.996 326.369C890.984 322.305 878.929 317.97 859.83 313.365L843.372 309.708C820.615 304.56 804.022 296.501 793.592 285.529C783.162 274.557 777.947 259.86 777.947 241.439C777.947 219.495 785.871 202.428 801.72 190.237C817.568 178.046 839.85 171.95 868.566 171.95C881.435 171.95 894.235 173.034 906.968 175.201C919.836 177.233 932.298 180.349 944.353 184.548ZM1026.24 325.556V177.436H1085.77V316.413C1085.77 332.803 1088.07 344.52 1092.68 351.563C1097.28 358.607 1104.93 362.129 1115.64 362.129C1126.34 362.129 1134.67 357.388 1140.63 347.906C1146.72 338.424 1149.77 325.15 1149.77 308.082V177.436H1209.3V405H1149.77V371.272C1145.57 383.869 1138.39 393.622 1128.23 400.53C1118.21 407.438 1106.09 410.892 1091.86 410.892C1070.19 410.892 1053.8 403.713 1042.69 389.355C1031.72 374.997 1026.24 353.73 1026.24 325.556ZM1334.26 372.897V491.555H1274.93V177.436H1334.26V211.571C1340.49 198.432 1348.69 188.544 1358.84 181.906C1369 175.269 1380.92 171.95 1394.6 171.95C1420.61 171.95 1440.79 182.38 1455.15 203.24C1469.51 224.1 1476.69 253.494 1476.69 291.421C1476.69 329.89 1469.38 359.42 1454.75 380.009C1440.25 400.598 1419.53 410.892 1392.57 410.892C1380.38 410.892 1369.41 407.777 1359.66 401.546C1350.04 395.18 1341.57 385.63 1334.26 372.897ZM1417.16 291.015C1417.16 269.071 1413.5 251.869 1406.19 239.407C1398.87 226.945 1388.78 220.714 1375.91 220.714C1363.04 220.714 1352.88 226.945 1345.43 239.407C1337.98 251.869 1334.26 269.071 1334.26 291.015C1334.26 312.959 1337.98 330.161 1345.43 342.623C1352.88 355.085 1363.04 361.316 1375.91 361.316C1388.78 361.316 1398.87 355.085 1406.19 342.623C1413.5 330.161 1417.16 312.959 1417.16 291.015ZM1637.41 298.126C1615.19 298.126 1599.68 300.971 1590.88 306.66C1582.07 312.349 1577.67 322.102 1577.67 335.918C1577.67 346.213 1580.72 354.408 1586.81 360.503C1592.91 366.599 1601.17 369.646 1611.6 369.646C1627.32 369.646 1639.51 363.754 1648.18 351.97C1656.84 340.05 1661.18 323.456 1661.18 302.19V298.126H1637.41ZM1720.3 275.167V405H1661.18V379.602C1654 389.626 1644.79 397.347 1633.55 402.765C1622.3 408.183 1609.91 410.892 1596.36 410.892C1570.49 410.892 1550.31 404.052 1535.82 390.371C1521.46 376.69 1514.28 357.591 1514.28 333.074C1514.28 306.525 1522.88 286.951 1540.08 274.354C1557.29 261.621 1583.9 255.255 1619.93 255.255H1661.18V245.299C1661.18 235.682 1657.66 228.435 1650.61 223.559C1643.71 218.547 1633.48 216.041 1619.93 216.041C1605.71 216.041 1591.89 217.87 1578.48 221.527C1565.21 225.049 1551.33 230.738 1536.83 238.594V187.799C1549.97 182.38 1563.31 178.384 1576.86 175.811C1590.4 173.237 1604.76 171.95 1619.93 171.95C1656.91 171.95 1682.85 179.468 1697.75 194.504C1712.79 209.539 1720.3 236.427 1720.3 275.167ZM1906.62 209.742V88.849H1965.95V405H1906.62V371.272C1900.26 384.411 1891.99 394.299 1881.83 400.936C1871.81 407.574 1859.96 410.892 1846.28 410.892C1820.27 410.892 1800.09 400.462 1785.73 379.602C1771.37 358.742 1764.19 329.349 1764.19 291.421C1764.19 252.952 1771.44 223.423 1785.93 202.834C1800.56 182.245 1821.35 171.95 1848.31 171.95C1860.5 171.95 1871.4 175.134 1881.02 181.5C1890.77 187.731 1899.31 197.145 1906.62 209.742ZM1823.72 291.828C1823.72 313.771 1827.38 330.974 1834.7 343.436C1842.01 355.898 1852.1 362.129 1864.97 362.129C1877.84 362.129 1888 355.898 1895.45 343.436C1902.9 330.974 1906.62 313.771 1906.62 291.828C1906.62 269.884 1902.9 252.681 1895.45 240.22C1888 227.758 1877.84 221.527 1864.97 221.527C1852.1 221.527 1842.01 227.758 1834.7 240.22C1827.38 252.681 1823.72 269.884 1823.72 291.828ZM2138.86 298.126C2116.64 298.126 2101.14 300.971 2092.33 306.66C2083.53 312.349 2079.12 322.102 2079.12 335.918C2079.12 346.213 2082.17 354.408 2088.27 360.503C2094.36 366.599 2102.63 369.646 2113.06 369.646C2128.77 369.646 2140.96 363.754 2149.63 351.97C2158.3 340.05 2162.63 323.456 2162.63 302.19V298.126H2138.86ZM2221.76 275.167V405H2162.63V379.602C2155.45 389.626 2146.24 397.347 2135 402.765C2123.76 408.183 2111.36 410.892 2097.82 410.892C2071.94 410.892 2051.76 404.052 2037.27 390.371C2022.91 376.69 2015.73 357.591 2015.73 333.074C2015.73 306.525 2024.33 286.951 2041.54 274.354C2058.74 261.621 2085.35 255.255 2121.39 255.255H2162.63V245.299C2162.63 235.682 2159.11 228.435 2152.07 223.559C2145.16 218.547 2134.93 216.041 2121.39 216.041C2107.16 216.041 2093.35 217.87 2079.94 221.527C2066.66 225.049 2052.78 230.738 2038.28 238.594V187.799C2051.42 182.38 2064.77 178.384 2078.31 175.811C2091.86 173.237 2106.21 171.95 2121.39 171.95C2158.36 171.95 2184.3 179.468 2199.2 194.504C2214.24 209.539 2221.76 236.427 2221.76 275.167ZM2387.55 112.824V177.436H2465.37V223.152H2387.55V330.839C2387.55 340.998 2389.99 348.312 2394.87 352.782C2399.88 357.117 2408.14 359.284 2419.66 359.284H2465.37V405H2415.39C2381.26 405 2358.16 399.582 2346.1 388.745C2334.05 377.774 2328.02 357.523 2328.02 327.994V223.152H2269.91V177.436H2328.02V112.824H2387.55ZM2640.31 298.126C2618.1 298.126 2602.59 300.971 2593.78 306.66C2584.98 312.349 2580.58 322.102 2580.58 335.918C2580.58 346.213 2583.62 354.408 2589.72 360.503C2595.82 366.599 2604.08 369.646 2614.51 369.646C2630.22 369.646 2642.41 363.754 2651.08 351.97C2659.75 340.05 2664.08 323.456 2664.08 302.19V298.126H2640.31ZM2723.21 275.167V405H2664.08V379.602C2656.91 389.626 2647.69 397.347 2636.45 402.765C2625.21 408.183 2612.81 410.892 2599.27 410.892C2573.4 410.892 2553.21 404.052 2538.72 390.371C2524.36 376.69 2517.18 357.591 2517.18 333.074C2517.18 306.525 2525.79 286.951 2542.99 274.354C2560.19 261.621 2586.81 255.255 2622.84 255.255H2664.08V245.299C2664.08 235.682 2660.56 228.435 2653.52 223.559C2646.61 218.547 2636.38 216.041 2622.84 216.041C2608.62 216.041 2594.8 217.87 2581.39 221.527C2568.11 225.049 2554.23 230.738 2539.74 238.594V187.799C2552.88 182.38 2566.22 178.384 2579.76 175.811C2593.31 173.237 2607.67 171.95 2622.84 171.95C2659.82 171.95 2685.76 179.468 2700.66 194.504C2715.69 209.539 2723.21 236.427 2723.21 275.167Z" fill="white"/>
<g clip-path="url(#clip0_23_10)">
<rect x="30" y="30" width="512" height="512" rx="100" fill="black"/>
<rect x="30.3467" y="29.9597" width="512" height="512" rx="100" fill="black"/>
<path d="M30 457.475V390.23H124.143L176.979 192.818H30V126.053H193.79L249.987 -86.7298H320.114L263.917 126.053H399.848L458.447 -86.7298H528.574L470.936 126.053H551.63V192.818H452.203L399.848 390.23H551.63V457.475H381.115L326.359 658.73H255.271L310.988 457.475H176.979L124.143 658.73H53.0555L106.371 457.475H30ZM194.75 390.23H329.241L383.517 192.818H246.145L194.75 390.23Z" fill="white"/>
</g>
<rect x="15" y="15" width="542" height="542" rx="115" stroke="white" stroke-width="30"/>
<defs>
<clipPath id="clip0_23_10">
<rect x="30" y="30" width="512" height="512" rx="100" fill="white"/>
</clipPath>
</defs>
</svg>
