<?xml version="1.0" encoding="UTF-8"?>
<svg width="128px" height="25px" viewBox="0 0 128 25" version="1.1" xmlns="http://www.w3.org/2000/svg" xmlns:xlink="http://www.w3.org/1999/xlink">
    <title>Group 4 Copy 4</title>
    <g id="Page-1" stroke="none" stroke-width="1" fill="none" fill-rule="evenodd">
        <g id="Logo" transform="translate(-1599.000000, -165.000000)" fill="#2C58F3">
            <g id="Group-4-Copy-4" transform="translate(1599.000000, 165.000000)">
                <path d="M47.8773282,19 L47.8773282,16.4553039 L41.5155881,16.4553039 L47.7525882,9.29522778 L47.7525882,6.85032372 L38.072764,6.85032372 L38.072764,9.39501978 L44.1101802,9.39501978 L37.948024,16.4802519 L37.948024,19 L47.8773282,19 Z M55.9105844,19.37422 C57.3076725,19.37422 58.4843865,19.012474 59.4407265,18.288982 C60.3970665,17.56549 61.0498725,16.6465719 61.3991446,15.5322279 L61.3991446,15.5322279 L58.9542405,14.7588399 C58.4885445,16.1725599 57.4739925,16.87942 55.9105844,16.87942 C55.0124564,16.87942 54.2432264,16.5800439 53.6028944,15.9812919 C52.9625624,15.3825399 52.6257644,14.6257839 52.5925004,13.7110239 L52.5925004,13.7110239 L61.4739886,13.7110239 C61.5238846,13.6112319 61.5488326,13.3035399 61.5488326,12.7879479 C61.5488326,10.8586358 61.0249245,9.32433378 59.9771085,8.18504175 C58.9292925,7.04574973 57.4739925,6.47610372 55.6112084,6.47610372 C54.0145364,6.47610372 52.6299224,7.07485573 51.4573663,8.27235976 C50.2848103,9.46986378 49.6985323,11.0000078 49.6985323,12.8627919 C49.6985323,14.8419999 50.3014423,16.4220399 51.5072623,17.602912 C52.7130824,18.783784 54.1808564,19.37422 55.9105844,19.37422 Z M58.6299165,11.5904438 L52.6673444,11.5904438 C52.7172404,10.8752678 53.0083004,10.2474098 53.5405244,9.70686979 C54.0727484,9.16632978 54.7712924,8.89605977 55.6361564,8.89605977 C56.5841804,8.89605977 57.3118305,9.15385578 57.8191065,9.66944779 C58.3263825,10.1850398 58.5966525,10.8253718 58.6299165,11.5904438 L58.6299165,11.5904438 Z M66.5320287,19 L66.5320287,11.9896118 C66.5320287,11.1580118 66.7524027,10.4719418 67.1931507,9.93140179 C67.6338987,9.39086178 68.2534407,9.12059178 69.0517767,9.12059178 C69.9166408,9.12059178 70.5486568,9.36591378 70.9478248,9.85655779 C71.3469928,10.3472018 71.5465768,11.0000078 71.5465768,11.8149758 L71.5465768,11.8149758 L71.5465768,19 L74.4405449,19 L74.4405449,11.3160158 C74.4405449,9.90229579 74.0663249,8.74637177 73.3178848,7.84824375 C72.5694448,6.95011573 71.4800488,6.50105172 70.0496968,6.50105172 C69.3178887,6.50105172 68.6318187,6.66321372 67.9914867,6.98753773 C67.3511547,7.31186173 66.8397207,7.80666375 66.4571847,8.47194376 L66.4571847,8.47194376 L66.4571847,6.85032372 L63.6380606,6.85032372 L63.6380606,19 L66.5320287,19 Z M80.172181,19 L80.172181,0.93764759 L77.2782129,0.93764759 L77.2782129,19 L80.172181,19 Z M88.2332532,19.37422 C90.0627733,19.37422 91.5721273,18.762994 92.7613153,17.540542 C93.9505033,16.3180899 94.5450974,14.7754719 94.5450974,12.9126879 C94.5450974,11.0499038 93.9505033,9.51144378 92.7613153,8.29730776 C91.5721273,7.08317173 90.0627733,6.47610372 88.2332532,6.47610372 C86.4203652,6.47610372 84.9193271,7.08317173 83.7301391,8.29730776 C82.5409511,9.51144378 81.9463571,11.0499038 81.9463571,12.9126879 C81.9463571,14.7754719 82.5409511,16.3180899 83.7301391,17.540542 C84.9193271,18.762994 86.4203652,19.37422 88.2332532,19.37422 Z M88.2332532,16.7796279 C87.2852292,16.7796279 86.4785772,16.4386719 85.8132972,15.7567599 C85.1646491,15.0582159 84.8403251,14.1101919 84.8403251,12.9126879 C84.8403251,11.7151838 85.1688071,10.7796338 85.8257712,10.1060378 C86.4827352,9.43244178 87.2852292,9.09564378 88.2332532,9.09564378 C89.1812772,9.09564378 89.9837713,9.43244178 90.6407353,10.1060378 C91.2976993,10.7796338 91.6261813,11.7151838 91.6261813,12.9126879 C91.6261813,14.1268239 91.2976993,15.0748479 90.6407353,15.7567599 C89.9837713,16.4386719 89.1812772,16.7796279 88.2332532,16.7796279 Z M101.57403,24.1143401 C103.702926,24.1143401 105.27465,23.5197461 106.289202,22.3305581 C107.303754,21.14137 107.81103,19.648648 107.81103,17.852392 L107.81103,17.852392 L107.81103,6.85032372 L105.016854,6.85032372 L105.016854,8.39709976 C104.40147,7.21622773 103.203966,6.62579172 101.424342,6.62579172 C99.7777735,6.62579172 98.4305815,7.19959573 97.3827654,8.34720376 C96.3349494,9.49481178 95.8110414,10.8918998 95.8110414,12.5384679 C95.8110414,14.2515639 96.3391074,15.6652839 97.3952394,16.7796279 C98.4513715,17.893972 99.7944055,18.451144 101.424342,18.451144 C102.255942,18.451144 102.979434,18.284824 103.594818,17.952184 C104.210202,17.619544 104.659266,17.195428 104.94201,16.6798359 L104.94201,16.6798359 L104.94201,17.952184 C104.94201,20.380456 103.794402,21.5945921 101.499186,21.5945921 C100.684218,21.5945921 99.9981475,21.3492701 99.4409755,20.858626 C98.8838035,20.367982 98.5553215,19.740124 98.4555295,18.975052 L98.4555295,18.975052 L95.7860934,19.673596 C95.9524134,20.937628 96.5677974,21.9937601 97.6322454,22.8419921 C98.6966935,23.6902241 100.010622,24.1143401 101.57403,24.1143401 Z M101.898354,15.9812919 C100.95033,15.9812919 100.185258,15.6694419 99.6031375,15.0457419 C99.0210175,14.4220419 98.7299575,13.5862839 98.7299575,12.5384679 C98.7299575,11.5072838 99.0251755,10.6798418 99.6156115,10.0561418 C100.206048,9.43244178 100.966962,9.12059178 101.898354,9.12059178 C102.813114,9.12059178 103.561554,9.43244178 104.143674,10.0561418 C104.725794,10.6798418 105.016854,11.5072838 105.016854,12.5384679 C105.016854,13.5862839 104.729957,14.4220419 104.156148,15.0457419 C103.582344,15.6694419 102.829746,15.9812919 101.898354,15.9812919 Z M112.095682,4.45531567 C112.627906,4.45531567 113.07697,4.27236367 113.442874,3.90645966 C113.808778,3.54055565 113.99173,3.09980764 113.99173,2.58421563 C113.99173,2.05199162 113.808778,1.6029276 113.442874,1.2370236 C113.07697,0.871119588 112.627906,0.688167584 112.095682,0.688167584 C111.58009,0.688167584 111.139342,0.875277588 110.773438,1.2494976 C110.407534,1.62371761 110.224582,2.06862362 110.224582,2.58421563 C110.224582,3.09980764 110.407534,3.54055565 110.773438,3.90645966 C111.139342,4.27236367 111.58009,4.45531567 112.095682,4.45531567 Z M113.542666,19 L113.542666,6.85032372 L110.673646,6.85032372 L110.673646,19 L113.542666,19 Z M119.498834,19 L119.498834,11.9896118 C119.498834,11.1580118 119.719208,10.4719418 120.159956,9.93140179 C120.600704,9.39086178 121.220246,9.12059178 122.018582,9.12059178 C122.883446,9.12059178 123.515462,9.36591378 123.91463,9.85655779 C124.313798,10.3472018 124.513382,11.0000078 124.513382,11.8149758 L124.513382,11.8149758 L124.513382,19 L127.40735,19 L127.40735,11.3160158 C127.40735,9.90229579 127.03313,8.74637177 126.28469,7.84824375 C125.53625,6.95011573 124.446854,6.50105172 123.016502,6.50105172 C122.284694,6.50105172 121.598624,6.66321372 120.958292,6.98753773 C120.31796,7.31186173 119.806526,7.80666375 119.42399,8.47194376 L119.42399,8.47194376 L119.42399,6.85032372 L116.604866,6.85032372 L116.604866,19 L119.498834,19 Z" id="zenlogin" fill-rule="nonzero"></path>
                <g id="Lotus-Yoga-Spa-Flower-Herbal-Lily-Wellness-Copy">
                    <path d="M23.9302006,22.6252021 C30.5038013,18.2428016 30.5038013,9.47800062 23.9302006,4 C17.3565998,9.47800062 17.3565998,18.2428016 23.9302006,22.6252021 Z" id="Path-Copy" fill-opacity="0.35" transform="translate(23.930201, 13.312601) rotate(-315.000000) translate(-23.930201, -13.312601) "></path>
                    <path d="M10.9302006,22.6252021 C17.5038013,18.2428016 17.5038013,9.47800062 10.9302006,4 C4.35659981,9.47800062 4.35659981,18.2428016 10.9302006,22.6252021 Z" id="Path-Copy-2" fill-opacity="0.85" transform="translate(10.930201, 13.312601) rotate(-45.000000) translate(-10.930201, -13.312601) "></path>
                    <path d="M17.4472016,19.1730022 C24.0208023,14.7906017 24.0208023,6.02580068 17.4472016,0.547800062 C10.8736008,6.02580068 10.8736008,14.7906017 17.4472016,19.1730022 Z" id="Path" fill-opacity="0.55"></path>
                </g>
            </g>
        </g>
    </g>
</svg>